  0
SECTION
  2
HEADER
  9
$ACADVER
  1
AC1009
  9
$INSBASE
 10
0.000000
 20
0.000000
  9
$LIMMIN
 10
-1270.000000
 20
-1270.000000
  9
$LIMMAX
 10
24130.000000
 20
24130.000000
  9
$EXTMIN
 10
-1270.000000
 20
-1270.000000
  9
$EXTMAX
 10
24130.000000
 20
24130.000000
  9
$ATTMODE
 70
0
  9
$LUNITS
 70
2
  9
$LUPREC
 70
3
  9
$THICKNESS
 40
0.731520
  0
ENDSEC
  0
SECTION
  2
TABLES
  0
TABLE
  2
LTYPE
 70
1
  0
LTYPE
  3
Solid Line
  2
CONTINUOUS
 70
0
 72
65
 73
0
 40
0.000000
  0
ENDTAB
  0
TABLE
  2
LAYER
 70
5
  0
LAYER
  2
BG_SILKSCREEN_BOTTOM
 70
0
 62
6
  6
CONTINUOUS
  0
LAYER
  2
BG_OUTLINE
 70
0
 62
140
  6
CONTINUOUS
  0
LAYER
  2
PG_SILKSCREEN_BOTTOM
 70
0
 62
150
  6
CONTINUOUS
  0
LAYER
  2
PIN_BOTTOM
 70
0
 62
12
  6
CONTINUOUS
  0
LAYER
  2
RD_SILKSCREEN_BOTTOM
 70
0
 62
150
  6
CONTINUOUS
  0
ENDTAB
  0
TABLE
  2
STYLE
 70
1
  0
STYLE
  2
STANDARD
 70
0
 40
0.000000
 41
1.000000
 50
0.000000
 71
0
 42
0.200000
  3
txt
  0
ENDTAB
  0
ENDSEC
  0
SECTION
  2
BLOCKS
  0
BLOCK
  8
0
  2
FIGURE_CIRCLE
 70
0
 10
0.000000
 20
0.000000
  0
CIRCLE
  8
0
 10
0.000000
 20
0.000000
 40
0.500000
  0
ENDBLK
  0
BLOCK
  8
0
  2
FIGURE_SQUARE
 70
0
 10
0.000000
 20
0.000000
  0
POLYLINE
  8
0
 66
1
 70
1
 40
0.000000
 41
0.000000
 39
0.000000
  0
VERTEX
  8
0
 10
-0.500000
 20
-0.500000
 40
0.000000
 41
0.000000
 42
0.000000
  0
VERTEX
  8
0
 10
-0.500000
 20
0.500000
 40
0.000000
 41
0.000000
 42
0.000000
  0
VERTEX
  8
0
 10
0.500000
 20
0.500000
 40
0.000000
 41
0.000000
 42
0.000000
  0
VERTEX
  8
0
 10
0.500000
 20
-0.500000
 40
0.000000
 41
0.000000
 42
0.000000
  0
SEQEND
  0
ENDBLK
  0
BLOCK
  8
0
  2
FIGURE_HEX
 70
0
 10
0.000000
 20
0.000000
  0
POLYLINE
  8
0
 66
1
 70
1
 40
0.000000
 41
0.000000
 39
0.000000
  0
VERTEX
  8
0
 10
-0.500000
 20
0.000000
 40
0.000000
 41
0.000000
 42
0.000000
  0
VERTEX
  8
0
 10
-0.250000
 20
0.500000
 40
0.000000
 41
0.000000
 42
0.000000
  0
VERTEX
  8
0
 10
0.250000
 20
0.500000
 40
0.000000
 41
0.000000
 42
0.000000
  0
VERTEX
  8
0
 10
0.500000
 20
0.000000
 40
0.000000
 41
0.000000
 42
0.000000
  0
VERTEX
  8
0
 10
0.250000
 20
-0.500000
 40
0.000000
 41
0.000000
 42
0.000000
  0
VERTEX
  8
0
 10
-0.250000
 20
-0.500000
 40
0.000000
 41
0.000000
 42
0.000000
  0
SEQEND
  0
ENDBLK
  0
BLOCK
  8
0
  2
FIGURE_OCT
 70
0
 10
0.000000
 20
0.000000
  0
POLYLINE
  8
0
 66
1
 70
1
 40
0.000000
 41
0.000000
 39
0.000000
  0
VERTEX
  8
0
 10
-0.500000
 20
-0.207100
 40
0.000000
 41
0.000000
 42
0.000000
  0
VERTEX
  8
0
 10
-0.500000
 20
0.207100
 40
0.000000
 41
0.000000
 42
0.000000
  0
VERTEX
  8
0
 10
-0.207100
 20
0.500000
 40
0.000000
 41
0.000000
 42
0.000000
  0
VERTEX
  8
0
 10
0.207100
 20
0.500000
 40
0.000000
 41
0.000000
 42
0.000000
  0
VERTEX
  8
0
 10
0.500000
 20
0.207100
 40
0.000000
 41
0.000000
 42
0.000000
  0
VERTEX
  8
0
 10
0.500000
 20
-0.207100
 40
0.000000
 41
0.000000
 42
0.000000
  0
VERTEX
  8
0
 10
0.207100
 20
-0.500000
 40
0.000000
 41
0.000000
 42
0.000000
  0
VERTEX
  8
0
 10
-0.207100
 20
-0.500000
 40
0.000000
 41
0.000000
 42
0.000000
  0
SEQEND
  0
ENDBLK
  0
BLOCK
  8
0
  2
FIGURE_OBLONG
 70
0
 10
0.000000
 20
0.000000
  0
POLYLINE
  8
0
 66
1
 70
1
 40
0.000000
 41
0.000000
 39
0.000000
  0
VERTEX
  8
0
 10
-0.500000
 20
-0.125000
 40
0.000000
 41
0.000000
 42
0.000000
  0
VERTEX
  8
0
 10
-0.500000
 20
0.125000
 40
0.000000
 41
0.000000
 42
0.000000
  0
VERTEX
  8
0
 10
-0.416000
 20
0.375000
 40
0.000000
 41
0.000000
 42
0.000000
  0
VERTEX
  8
0
 10
-0.250000
 20
0.500000
 40
0.000000
 41
0.000000
 42
0.000000
  0
VERTEX
  8
0
 10
0.250000
 20
0.500000
 40
0.000000
 41
0.000000
 42
0.000000
  0
VERTEX
  8
0
 10
0.416000
 20
0.375000
 40
0.000000
 41
0.000000
 42
0.000000
  0
VERTEX
  8
0
 10
0.500000
 20
0.125000
 40
0.000000
 41
0.000000
 42
0.000000
  0
VERTEX
  8
0
 10
0.500000
 20
-0.125000
 40
0.000000
 41
0.000000
 42
0.000000
  0
VERTEX
  8
0
 10
0.416000
 20
-0.375000
 40
0.000000
 41
0.000000
 42
0.000000
  0
VERTEX
  8
0
 10
0.250000
 20
-0.500000
 40
0.000000
 41
0.000000
 42
0.000000
  0
VERTEX
  8
0
 10
-0.250000
 20
-0.500000
 40
0.000000
 41
0.000000
 42
0.000000
  0
VERTEX
  8
0
 10
-0.416000
 20
-0.375000
 40
0.000000
 41
0.000000
 42
0.000000
  0
SEQEND
  0
ENDBLK
  0
BLOCK
  8
0
  2
FIGURE_TRI
 70
0
 10
0.000000
 20
0.000000
  0
POLYLINE
  8
0
 66
1
 70
1
 40
0.000000
 41
0.000000
 39
0.000000
  0
VERTEX
  8
0
 10
-0.500000
 20
-0.500000
 40
0.000000
 41
0.000000
 42
0.000000
  0
VERTEX
  8
0
 10
0.000000
 20
0.500000
 40
0.000000
 41
0.000000
 42
0.000000
  0
VERTEX
  8
0
 10
0.500000
 20
-0.500000
 40
0.000000
 41
0.000000
 42
0.000000
  0
SEQEND
  0
ENDBLK
  0
BLOCK
  8
0
  2
FIGURE_CROSS
 70
0
 10
0.000000
 20
0.000000
  0
POLYLINE
  8
0
 66
1
 70
0
 40
0.000000
 41
0.000000
 39
0.000000
  0
VERTEX
  8
0
 10
-0.500000
 20
0.000000
 40
0.000000
 41
0.000000
 42
0.000000
  0
VERTEX
  8
0
 10
0.500000
 20
0.000000
 40
0.000000
 41
0.000000
 42
0.000000
  0
SEQEND
  0
POLYLINE
  8
0
 66
1
 70
0
 40
0.000000
 41
0.000000
 39
0.000000
  0
VERTEX
  8
0
 10
0.000000
 20
0.500000
 40
0.000000
 41
0.000000
 42
0.000000
  0
VERTEX
  8
0
 10
0.000000
 20
-0.500000
 40
0.000000
 41
0.000000
 42
0.000000
  0
SEQEND
  0
ENDBLK
  0
BLOCK
  8
0
  2
FIGURE_DIAMOND
 70
0
 10
0.000000
 20
0.000000
  0
POLYLINE
  8
0
 66
1
 70
1
 40
0.000000
 41
0.000000
 39
0.000000
  0
VERTEX
  8
0
 10
-0.500000
 20
0.000000
 40
0.000000
 41
0.000000
 42
0.000000
  0
VERTEX
  8
0
 10
0.000000
 20
0.500000
 40
0.000000
 41
0.000000
 42
0.000000
  0
VERTEX
  8
0
 10
0.500000
 20
0.000000
 40
0.000000
 41
0.000000
 42
0.000000
  0
VERTEX
  8
0
 10
0.000000
 20
-0.500000
 40
0.000000
 41
0.000000
 42
0.000000
  0
SEQEND
  0
ENDBLK
  0
ENDSEC
  0
SECTION
  2
ENTITIES
  0
CIRCLE
  8
PIN_BOTTOM
 10
131.774997
 20
26.961998
 40
0.799998
  0
CIRCLE
  8
PIN_BOTTOM
 10
129.234997
 20
26.961998
 40
0.799998
  0
CIRCLE
  8
PIN_BOTTOM
 10
131.774997
 20
29.501998
 40
0.799998
  0
CIRCLE
  8
PIN_BOTTOM
 10
129.234997
 20
29.501998
 40
0.799998
  0
CIRCLE
  8
PIN_BOTTOM
 10
131.774997
 20
32.041998
 40
0.799998
  0
CIRCLE
  8
PIN_BOTTOM
 10
129.234997
 20
32.041998
 40
0.799998
  0
CIRCLE
  8
PIN_BOTTOM
 10
131.774997
 20
34.581998
 40
0.799998
  0
CIRCLE
  8
PIN_BOTTOM
 10
129.234997
 20
34.581998
 40
0.799998
  0
CIRCLE
  8
PIN_BOTTOM
 10
131.774997
 20
37.121998
 40
0.799998
  0
CIRCLE
  8
PIN_BOTTOM
 10
129.234997
 20
37.121998
 40
0.799998
  0
CIRCLE
  8
PIN_BOTTOM
 10
131.774997
 20
39.661998
 40
0.799998
  0
CIRCLE
  8
PIN_BOTTOM
 10
129.234997
 20
39.661998
 40
0.799998
  0
CIRCLE
  8
PIN_BOTTOM
 10
131.774997
 20
42.201998
 40
0.799998
  0
CIRCLE
  8
PIN_BOTTOM
 10
129.234997
 20
42.201998
 40
0.799998
  0
CIRCLE
  8
PIN_BOTTOM
 10
131.774997
 20
44.741998
 40
0.799998
  0
CIRCLE
  8
PIN_BOTTOM
 10
129.234997
 20
44.741998
 40
0.799998
  0
CIRCLE
  8
PIN_BOTTOM
 10
131.774997
 20
47.281998
 40
0.799998
  0
CIRCLE
  8
PIN_BOTTOM
 10
129.234997
 20
47.281998
 40
0.799998
  0
CIRCLE
  8
PIN_BOTTOM
 10
131.774997
 20
49.821998
 40
0.799998
  0
CIRCLE
  8
PIN_BOTTOM
 10
129.234997
 20
49.821998
 40
0.799998
  0
CIRCLE
  8
PIN_BOTTOM
 10
131.774997
 20
52.361998
 40
0.799998
  0
CIRCLE
  8
PIN_BOTTOM
 10
129.234997
 20
52.361998
 40
0.799998
  0
CIRCLE
  8
PIN_BOTTOM
 10
131.774997
 20
54.901998
 40
0.799998
  0
CIRCLE
  8
PIN_BOTTOM
 10
129.234997
 20
54.901998
 40
0.799998
  0
CIRCLE
  8
PIN_BOTTOM
 10
131.774997
 20
57.441998
 40
0.799998
  0
CIRCLE
  8
PIN_BOTTOM
 10
129.234997
 20
57.441998
 40
0.799998
  0
CIRCLE
  8
PIN_BOTTOM
 10
131.774997
 20
59.981998
 40
0.799998
  0
CIRCLE
  8
PIN_BOTTOM
 10
129.234997
 20
59.981998
 40
0.799998
  0
CIRCLE
  8
PIN_BOTTOM
 10
131.774997
 20
62.521998
 40
0.799998
  0
CIRCLE
  8
PIN_BOTTOM
 10
129.234997
 20
62.521998
 40
0.799998
  0
CIRCLE
  8
PIN_BOTTOM
 10
131.774997
 20
65.061998
 40
0.799998
  0
CIRCLE
  8
PIN_BOTTOM
 10
129.234997
 20
65.061998
 40
0.799998
  0
CIRCLE
  8
PIN_BOTTOM
 10
131.774997
 20
67.601998
 40
0.799998
  0
CIRCLE
  8
PIN_BOTTOM
 10
129.234997
 20
67.601998
 40
0.799998
  0
CIRCLE
  8
PIN_BOTTOM
 10
131.774997
 20
70.141998
 40
0.799998
  0
CIRCLE
  8
PIN_BOTTOM
 10
129.234997
 20
70.141998
 40
0.799998
  0
CIRCLE
  8
PIN_BOTTOM
 10
131.774997
 20
72.681998
 40
0.799998
  0
CIRCLE
  8
PIN_BOTTOM
 10
129.234997
 20
72.681998
 40
0.799998
  0
CIRCLE
  8
PIN_BOTTOM
 10
131.774997
 20
75.221998
 40
0.799998
  0
POLYLINE
  8
PIN_BOTTOM
 66
1
 70
1
 40
0.000000
 41
0.000000
 39
0.000000
  0
VERTEX
  8
PIN_BOTTOM
 10
130.034944
 20
76.021946
 40
0.000000
 41
0.000000
 42
0.000000
  0
VERTEX
  8
PIN_BOTTOM
 10
130.034944
 20
74.422051
 40
0.000000
 41
0.000000
 42
0.000000
  0
VERTEX
  8
PIN_BOTTOM
 10
128.435049
 20
74.422051
 40
0.000000
 41
0.000000
 42
0.000000
  0
VERTEX
  8
PIN_BOTTOM
 10
128.435049
 20
76.021946
 40
0.000000
 41
0.000000
 42
0.000000
  0
SEQEND
  0
POLYLINE
  8
PG_SILKSCREEN_BOTTOM
 66
1
 70
0
 40
0.000000
 41
0.000000
 39
0.000000
  0
VERTEX
  8
PG_SILKSCREEN_BOTTOM
 10
130.504997
 20
75.892000
 40
0.499999
 41
0.499999
 42
0.000000
  0
VERTEX
  8
PG_SILKSCREEN_BOTTOM
 10
130.504997
 20
26.091998
 40
0.499999
 41
0.499999
 42
0.000000
  0
SEQEND
  0
POLYLINE
  8
PG_SILKSCREEN_BOTTOM
 66
1
 70
0
 40
0.000000
 41
0.000000
 39
0.000000
  0
VERTEX
  8
PG_SILKSCREEN_BOTTOM
 10
128.434998
 20
73.951998
 40
0.499999
 41
0.499999
 42
0.000000
  0
VERTEX
  8
PG_SILKSCREEN_BOTTOM
 10
132.574995
 20
73.951998
 40
0.499999
 41
0.499999
 42
0.000000
  0
SEQEND
  0
POLYLINE
  8
PG_SILKSCREEN_BOTTOM
 66
1
 70
0
 40
0.000000
 41
0.000000
 39
0.000000
  0
VERTEX
  8
PG_SILKSCREEN_BOTTOM
 10
128.434998
 20
71.411998
 40
0.499999
 41
0.499999
 42
0.000000
  0
VERTEX
  8
PG_SILKSCREEN_BOTTOM
 10
132.574995
 20
71.411998
 40
0.499999
 41
0.499999
 42
0.000000
  0
SEQEND
  0
POLYLINE
  8
PG_SILKSCREEN_BOTTOM
 66
1
 70
0
 40
0.000000
 41
0.000000
 39
0.000000
  0
VERTEX
  8
PG_SILKSCREEN_BOTTOM
 10
128.434998
 20
68.871998
 40
0.499999
 41
0.499999
 42
0.000000
  0
VERTEX
  8
PG_SILKSCREEN_BOTTOM
 10
132.574995
 20
68.871998
 40
0.499999
 41
0.499999
 42
0.000000
  0
SEQEND
  0
POLYLINE
  8
PG_SILKSCREEN_BOTTOM
 66
1
 70
0
 40
0.000000
 41
0.000000
 39
0.000000
  0
VERTEX
  8
PG_SILKSCREEN_BOTTOM
 10
128.434998
 20
66.331998
 40
0.499999
 41
0.499999
 42
0.000000
  0
VERTEX
  8
PG_SILKSCREEN_BOTTOM
 10
132.574995
 20
66.331998
 40
0.499999
 41
0.499999
 42
0.000000
  0
SEQEND
  0
POLYLINE
  8
PG_SILKSCREEN_BOTTOM
 66
1
 70
0
 40
0.000000
 41
0.000000
 39
0.000000
  0
VERTEX
  8
PG_SILKSCREEN_BOTTOM
 10
128.434998
 20
63.791998
 40
0.499999
 41
0.499999
 42
0.000000
  0
VERTEX
  8
PG_SILKSCREEN_BOTTOM
 10
132.574995
 20
63.791998
 40
0.499999
 41
0.499999
 42
0.000000
  0
SEQEND
  0
POLYLINE
  8
PG_SILKSCREEN_BOTTOM
 66
1
 70
0
 40
0.000000
 41
0.000000
 39
0.000000
  0
VERTEX
  8
PG_SILKSCREEN_BOTTOM
 10
128.434998
 20
61.251998
 40
0.499999
 41
0.499999
 42
0.000000
  0
VERTEX
  8
PG_SILKSCREEN_BOTTOM
 10
132.574995
 20
61.251998
 40
0.499999
 41
0.499999
 42
0.000000
  0
SEQEND
  0
POLYLINE
  8
PG_SILKSCREEN_BOTTOM
 66
1
 70
0
 40
0.000000
 41
0.000000
 39
0.000000
  0
VERTEX
  8
PG_SILKSCREEN_BOTTOM
 10
128.434998
 20
58.711998
 40
0.499999
 41
0.499999
 42
0.000000
  0
VERTEX
  8
PG_SILKSCREEN_BOTTOM
 10
132.574995
 20
58.711998
 40
0.499999
 41
0.499999
 42
0.000000
  0
SEQEND
  0
POLYLINE
  8
PG_SILKSCREEN_BOTTOM
 66
1
 70
0
 40
0.000000
 41
0.000000
 39
0.000000
  0
VERTEX
  8
PG_SILKSCREEN_BOTTOM
 10
128.434998
 20
56.171998
 40
0.499999
 41
0.499999
 42
0.000000
  0
VERTEX
  8
PG_SILKSCREEN_BOTTOM
 10
132.574995
 20
56.171998
 40
0.499999
 41
0.499999
 42
0.000000
  0
SEQEND
  0
POLYLINE
  8
PG_SILKSCREEN_BOTTOM
 66
1
 70
0
 40
0.000000
 41
0.000000
 39
0.000000
  0
VERTEX
  8
PG_SILKSCREEN_BOTTOM
 10
128.434998
 20
53.631998
 40
0.499999
 41
0.499999
 42
0.000000
  0
VERTEX
  8
PG_SILKSCREEN_BOTTOM
 10
132.574995
 20
53.631998
 40
0.499999
 41
0.499999
 42
0.000000
  0
SEQEND
  0
POLYLINE
  8
PG_SILKSCREEN_BOTTOM
 66
1
 70
0
 40
0.000000
 41
0.000000
 39
0.000000
  0
VERTEX
  8
PG_SILKSCREEN_BOTTOM
 10
128.434998
 20
51.091998
 40
0.499999
 41
0.499999
 42
0.000000
  0
VERTEX
  8
PG_SILKSCREEN_BOTTOM
 10
132.574995
 20
51.091998
 40
0.499999
 41
0.499999
 42
0.000000
  0
SEQEND
  0
POLYLINE
  8
PG_SILKSCREEN_BOTTOM
 66
1
 70
0
 40
0.000000
 41
0.000000
 39
0.000000
  0
VERTEX
  8
PG_SILKSCREEN_BOTTOM
 10
128.434998
 20
48.551998
 40
0.499999
 41
0.499999
 42
0.000000
  0
VERTEX
  8
PG_SILKSCREEN_BOTTOM
 10
132.574995
 20
48.551998
 40
0.499999
 41
0.499999
 42
0.000000
  0
SEQEND
  0
POLYLINE
  8
PG_SILKSCREEN_BOTTOM
 66
1
 70
0
 40
0.000000
 41
0.000000
 39
0.000000
  0
VERTEX
  8
PG_SILKSCREEN_BOTTOM
 10
128.434998
 20
46.011998
 40
0.499999
 41
0.499999
 42
0.000000
  0
VERTEX
  8
PG_SILKSCREEN_BOTTOM
 10
132.574995
 20
46.011998
 40
0.499999
 41
0.499999
 42
0.000000
  0
SEQEND
  0
POLYLINE
  8
PG_SILKSCREEN_BOTTOM
 66
1
 70
0
 40
0.000000
 41
0.000000
 39
0.000000
  0
VERTEX
  8
PG_SILKSCREEN_BOTTOM
 10
128.434998
 20
43.471998
 40
0.499999
 41
0.499999
 42
0.000000
  0
VERTEX
  8
PG_SILKSCREEN_BOTTOM
 10
132.574995
 20
43.471998
 40
0.499999
 41
0.499999
 42
0.000000
  0
SEQEND
  0
POLYLINE
  8
PG_SILKSCREEN_BOTTOM
 66
1
 70
0
 40
0.000000
 41
0.000000
 39
0.000000
  0
VERTEX
  8
PG_SILKSCREEN_BOTTOM
 10
128.434998
 20
40.931998
 40
0.499999
 41
0.499999
 42
0.000000
  0
VERTEX
  8
PG_SILKSCREEN_BOTTOM
 10
132.574995
 20
40.931998
 40
0.499999
 41
0.499999
 42
0.000000
  0
SEQEND
  0
POLYLINE
  8
PG_SILKSCREEN_BOTTOM
 66
1
 70
0
 40
0.000000
 41
0.000000
 39
0.000000
  0
VERTEX
  8
PG_SILKSCREEN_BOTTOM
 10
128.434998
 20
38.391998
 40
0.499999
 41
0.499999
 42
0.000000
  0
VERTEX
  8
PG_SILKSCREEN_BOTTOM
 10
132.574995
 20
38.391998
 40
0.499999
 41
0.499999
 42
0.000000
  0
SEQEND
  0
POLYLINE
  8
PG_SILKSCREEN_BOTTOM
 66
1
 70
0
 40
0.000000
 41
0.000000
 39
0.000000
  0
VERTEX
  8
PG_SILKSCREEN_BOTTOM
 10
128.434998
 20
35.851998
 40
0.499999
 41
0.499999
 42
0.000000
  0
VERTEX
  8
PG_SILKSCREEN_BOTTOM
 10
132.574995
 20
35.851998
 40
0.499999
 41
0.499999
 42
0.000000
  0
SEQEND
  0
POLYLINE
  8
PG_SILKSCREEN_BOTTOM
 66
1
 70
0
 40
0.000000
 41
0.000000
 39
0.000000
  0
VERTEX
  8
PG_SILKSCREEN_BOTTOM
 10
128.434998
 20
33.311998
 40
0.499999
 41
0.499999
 42
0.000000
  0
VERTEX
  8
PG_SILKSCREEN_BOTTOM
 10
132.574995
 20
33.311998
 40
0.499999
 41
0.499999
 42
0.000000
  0
SEQEND
  0
POLYLINE
  8
PG_SILKSCREEN_BOTTOM
 66
1
 70
0
 40
0.000000
 41
0.000000
 39
0.000000
  0
VERTEX
  8
PG_SILKSCREEN_BOTTOM
 10
128.434998
 20
30.771998
 40
0.499999
 41
0.499999
 42
0.000000
  0
VERTEX
  8
PG_SILKSCREEN_BOTTOM
 10
132.574995
 20
30.771998
 40
0.499999
 41
0.499999
 42
0.000000
  0
SEQEND
  0
POLYLINE
  8
PG_SILKSCREEN_BOTTOM
 66
1
 70
0
 40
0.000000
 41
0.000000
 39
0.000000
  0
VERTEX
  8
PG_SILKSCREEN_BOTTOM
 10
128.434998
 20
28.231998
 40
0.499999
 41
0.499999
 42
0.000000
  0
VERTEX
  8
PG_SILKSCREEN_BOTTOM
 10
132.574995
 20
28.231998
 40
0.499999
 41
0.499999
 42
0.000000
  0
SEQEND
  0
CIRCLE
  8
PIN_BOTTOM
 10
112.130002
 20
5.080000
 40
0.799998
  0
CIRCLE
  8
PIN_BOTTOM
 10
112.130002
 20
2.540000
 40
0.799998
  0
CIRCLE
  8
PIN_BOTTOM
 10
109.590002
 20
5.080000
 40
0.799998
  0
CIRCLE
  8
PIN_BOTTOM
 10
109.590002
 20
2.540000
 40
0.799998
  0
CIRCLE
  8
PIN_BOTTOM
 10
107.050002
 20
5.080000
 40
0.799998
  0
CIRCLE
  8
PIN_BOTTOM
 10
107.050002
 20
2.540000
 40
0.799998
  0
CIRCLE
  8
PIN_BOTTOM
 10
104.510002
 20
5.080000
 40
0.799998
  0
CIRCLE
  8
PIN_BOTTOM
 10
104.510002
 20
2.540000
 40
0.799998
  0
CIRCLE
  8
PIN_BOTTOM
 10
101.970002
 20
5.080000
 40
0.799998
  0
CIRCLE
  8
PIN_BOTTOM
 10
101.970002
 20
2.540000
 40
0.799998
  0
CIRCLE
  8
PIN_BOTTOM
 10
99.430002
 20
5.080000
 40
0.799998
  0
CIRCLE
  8
PIN_BOTTOM
 10
99.430002
 20
2.540000
 40
0.799998
  0
CIRCLE
  8
PIN_BOTTOM
 10
96.890002
 20
5.080000
 40
0.799998
  0
CIRCLE
  8
PIN_BOTTOM
 10
96.890002
 20
2.540000
 40
0.799998
  0
CIRCLE
  8
PIN_BOTTOM
 10
94.350002
 20
5.080000
 40
0.799998
  0
CIRCLE
  8
PIN_BOTTOM
 10
94.350002
 20
2.540000
 40
0.799998
  0
CIRCLE
  8
PIN_BOTTOM
 10
91.810002
 20
5.080000
 40
0.799998
  0
CIRCLE
  8
PIN_BOTTOM
 10
91.810002
 20
2.540000
 40
0.799998
  0
CIRCLE
  8
PIN_BOTTOM
 10
89.270002
 20
5.080000
 40
0.799998
  0
CIRCLE
  8
PIN_BOTTOM
 10
89.270002
 20
2.540000
 40
0.799998
  0
CIRCLE
  8
PIN_BOTTOM
 10
86.730002
 20
5.080000
 40
0.799998
  0
CIRCLE
  8
PIN_BOTTOM
 10
86.730002
 20
2.540000
 40
0.799998
  0
CIRCLE
  8
PIN_BOTTOM
 10
84.190002
 20
5.080000
 40
0.799998
  0
CIRCLE
  8
PIN_BOTTOM
 10
84.190002
 20
2.540000
 40
0.799998
  0
CIRCLE
  8
PIN_BOTTOM
 10
81.650002
 20
5.080000
 40
0.799998
  0
CIRCLE
  8
PIN_BOTTOM
 10
81.650002
 20
2.540000
 40
0.799998
  0
CIRCLE
  8
PIN_BOTTOM
 10
79.110002
 20
5.080000
 40
0.799998
  0
CIRCLE
  8
PIN_BOTTOM
 10
79.110002
 20
2.540000
 40
0.799998
  0
CIRCLE
  8
PIN_BOTTOM
 10
76.570002
 20
5.080000
 40
0.799998
  0
CIRCLE
  8
PIN_BOTTOM
 10
76.570002
 20
2.540000
 40
0.799998
  0
CIRCLE
  8
PIN_BOTTOM
 10
74.030002
 20
5.080000
 40
0.799998
  0
CIRCLE
  8
PIN_BOTTOM
 10
74.030002
 20
2.540000
 40
0.799998
  0
CIRCLE
  8
PIN_BOTTOM
 10
71.490002
 20
5.080000
 40
0.799998
  0
CIRCLE
  8
PIN_BOTTOM
 10
71.490002
 20
2.540000
 40
0.799998
  0
CIRCLE
  8
PIN_BOTTOM
 10
68.950002
 20
5.080000
 40
0.799998
  0
CIRCLE
  8
PIN_BOTTOM
 10
68.950002
 20
2.540000
 40
0.799998
  0
CIRCLE
  8
PIN_BOTTOM
 10
66.410002
 20
5.080000
 40
0.799998
  0
CIRCLE
  8
PIN_BOTTOM
 10
66.410002
 20
2.540000
 40
0.799998
  0
CIRCLE
  8
PIN_BOTTOM
 10
63.870002
 20
5.080000
 40
0.799998
  0
POLYLINE
  8
PIN_BOTTOM
 66
1
 70
1
 40
0.000000
 41
0.000000
 39
0.000000
  0
VERTEX
  8
PIN_BOTTOM
 10
63.070054
 20
3.339948
 40
0.000000
 41
0.000000
 42
0.000000
  0
VERTEX
  8
PIN_BOTTOM
 10
64.669949
 20
3.339948
 40
0.000000
 41
0.000000
 42
0.000000
  0
VERTEX
  8
PIN_BOTTOM
 10
64.669949
 20
1.740052
 40
0.000000
 41
0.000000
 42
0.000000
  0
VERTEX
  8
PIN_BOTTOM
 10
63.070054
 20
1.740052
 40
0.000000
 41
0.000000
 42
0.000000
  0
SEQEND
  0
POLYLINE
  8
PG_SILKSCREEN_BOTTOM
 66
1
 70
0
 40
0.000000
 41
0.000000
 39
0.000000
  0
VERTEX
  8
PG_SILKSCREEN_BOTTOM
 10
63.200001
 20
3.810000
 40
0.499999
 41
0.499999
 42
0.000000
  0
VERTEX
  8
PG_SILKSCREEN_BOTTOM
 10
113.000003
 20
3.810000
 40
0.499999
 41
0.499999
 42
0.000000
  0
SEQEND
  0
POLYLINE
  8
PG_SILKSCREEN_BOTTOM
 66
1
 70
0
 40
0.000000
 41
0.000000
 39
0.000000
  0
VERTEX
  8
PG_SILKSCREEN_BOTTOM
 10
65.140002
 20
1.740002
 40
0.499999
 41
0.499999
 42
0.000000
  0
VERTEX
  8
PG_SILKSCREEN_BOTTOM
 10
65.140002
 20
5.879998
 40
0.499999
 41
0.499999
 42
0.000000
  0
SEQEND
  0
POLYLINE
  8
PG_SILKSCREEN_BOTTOM
 66
1
 70
0
 40
0.000000
 41
0.000000
 39
0.000000
  0
VERTEX
  8
PG_SILKSCREEN_BOTTOM
 10
67.680002
 20
1.740002
 40
0.499999
 41
0.499999
 42
0.000000
  0
VERTEX
  8
PG_SILKSCREEN_BOTTOM
 10
67.680002
 20
5.879998
 40
0.499999
 41
0.499999
 42
0.000000
  0
SEQEND
  0
POLYLINE
  8
PG_SILKSCREEN_BOTTOM
 66
1
 70
0
 40
0.000000
 41
0.000000
 39
0.000000
  0
VERTEX
  8
PG_SILKSCREEN_BOTTOM
 10
70.220002
 20
1.740002
 40
0.499999
 41
0.499999
 42
0.000000
  0
VERTEX
  8
PG_SILKSCREEN_BOTTOM
 10
70.220002
 20
5.879998
 40
0.499999
 41
0.499999
 42
0.000000
  0
SEQEND
  0
POLYLINE
  8
PG_SILKSCREEN_BOTTOM
 66
1
 70
0
 40
0.000000
 41
0.000000
 39
0.000000
  0
VERTEX
  8
PG_SILKSCREEN_BOTTOM
 10
72.760002
 20
1.740002
 40
0.499999
 41
0.499999
 42
0.000000
  0
VERTEX
  8
PG_SILKSCREEN_BOTTOM
 10
72.760002
 20
5.879998
 40
0.499999
 41
0.499999
 42
0.000000
  0
SEQEND
  0
POLYLINE
  8
PG_SILKSCREEN_BOTTOM
 66
1
 70
0
 40
0.000000
 41
0.000000
 39
0.000000
  0
VERTEX
  8
PG_SILKSCREEN_BOTTOM
 10
75.300002
 20
1.740002
 40
0.499999
 41
0.499999
 42
0.000000
  0
VERTEX
  8
PG_SILKSCREEN_BOTTOM
 10
75.300002
 20
5.879998
 40
0.499999
 41
0.499999
 42
0.000000
  0
SEQEND
  0
POLYLINE
  8
PG_SILKSCREEN_BOTTOM
 66
1
 70
0
 40
0.000000
 41
0.000000
 39
0.000000
  0
VERTEX
  8
PG_SILKSCREEN_BOTTOM
 10
77.840002
 20
1.740002
 40
0.499999
 41
0.499999
 42
0.000000
  0
VERTEX
  8
PG_SILKSCREEN_BOTTOM
 10
77.840002
 20
5.879998
 40
0.499999
 41
0.499999
 42
0.000000
  0
SEQEND
  0
POLYLINE
  8
PG_SILKSCREEN_BOTTOM
 66
1
 70
0
 40
0.000000
 41
0.000000
 39
0.000000
  0
VERTEX
  8
PG_SILKSCREEN_BOTTOM
 10
80.380002
 20
1.740002
 40
0.499999
 41
0.499999
 42
0.000000
  0
VERTEX
  8
PG_SILKSCREEN_BOTTOM
 10
80.380002
 20
5.879998
 40
0.499999
 41
0.499999
 42
0.000000
  0
SEQEND
  0
POLYLINE
  8
PG_SILKSCREEN_BOTTOM
 66
1
 70
0
 40
0.000000
 41
0.000000
 39
0.000000
  0
VERTEX
  8
PG_SILKSCREEN_BOTTOM
 10
82.920002
 20
1.740002
 40
0.499999
 41
0.499999
 42
0.000000
  0
VERTEX
  8
PG_SILKSCREEN_BOTTOM
 10
82.920002
 20
5.879998
 40
0.499999
 41
0.499999
 42
0.000000
  0
SEQEND
  0
POLYLINE
  8
PG_SILKSCREEN_BOTTOM
 66
1
 70
0
 40
0.000000
 41
0.000000
 39
0.000000
  0
VERTEX
  8
PG_SILKSCREEN_BOTTOM
 10
85.460002
 20
1.740002
 40
0.499999
 41
0.499999
 42
0.000000
  0
VERTEX
  8
PG_SILKSCREEN_BOTTOM
 10
85.460002
 20
5.879998
 40
0.499999
 41
0.499999
 42
0.000000
  0
SEQEND
  0
POLYLINE
  8
PG_SILKSCREEN_BOTTOM
 66
1
 70
0
 40
0.000000
 41
0.000000
 39
0.000000
  0
VERTEX
  8
PG_SILKSCREEN_BOTTOM
 10
88.000002
 20
1.740002
 40
0.499999
 41
0.499999
 42
0.000000
  0
VERTEX
  8
PG_SILKSCREEN_BOTTOM
 10
88.000002
 20
5.879998
 40
0.499999
 41
0.499999
 42
0.000000
  0
SEQEND
  0
POLYLINE
  8
PG_SILKSCREEN_BOTTOM
 66
1
 70
0
 40
0.000000
 41
0.000000
 39
0.000000
  0
VERTEX
  8
PG_SILKSCREEN_BOTTOM
 10
90.540002
 20
1.740002
 40
0.499999
 41
0.499999
 42
0.000000
  0
VERTEX
  8
PG_SILKSCREEN_BOTTOM
 10
90.540002
 20
5.879998
 40
0.499999
 41
0.499999
 42
0.000000
  0
SEQEND
  0
POLYLINE
  8
PG_SILKSCREEN_BOTTOM
 66
1
 70
0
 40
0.000000
 41
0.000000
 39
0.000000
  0
VERTEX
  8
PG_SILKSCREEN_BOTTOM
 10
93.080002
 20
1.740002
 40
0.499999
 41
0.499999
 42
0.000000
  0
VERTEX
  8
PG_SILKSCREEN_BOTTOM
 10
93.080002
 20
5.879998
 40
0.499999
 41
0.499999
 42
0.000000
  0
SEQEND
  0
POLYLINE
  8
PG_SILKSCREEN_BOTTOM
 66
1
 70
0
 40
0.000000
 41
0.000000
 39
0.000000
  0
VERTEX
  8
PG_SILKSCREEN_BOTTOM
 10
95.620002
 20
1.740002
 40
0.499999
 41
0.499999
 42
0.000000
  0
VERTEX
  8
PG_SILKSCREEN_BOTTOM
 10
95.620002
 20
5.879998
 40
0.499999
 41
0.499999
 42
0.000000
  0
SEQEND
  0
POLYLINE
  8
PG_SILKSCREEN_BOTTOM
 66
1
 70
0
 40
0.000000
 41
0.000000
 39
0.000000
  0
VERTEX
  8
PG_SILKSCREEN_BOTTOM
 10
98.160002
 20
1.740002
 40
0.499999
 41
0.499999
 42
0.000000
  0
VERTEX
  8
PG_SILKSCREEN_BOTTOM
 10
98.160002
 20
5.879998
 40
0.499999
 41
0.499999
 42
0.000000
  0
SEQEND
  0
POLYLINE
  8
PG_SILKSCREEN_BOTTOM
 66
1
 70
0
 40
0.000000
 41
0.000000
 39
0.000000
  0
VERTEX
  8
PG_SILKSCREEN_BOTTOM
 10
100.700002
 20
1.740002
 40
0.499999
 41
0.499999
 42
0.000000
  0
VERTEX
  8
PG_SILKSCREEN_BOTTOM
 10
100.700002
 20
5.879998
 40
0.499999
 41
0.499999
 42
0.000000
  0
SEQEND
  0
POLYLINE
  8
PG_SILKSCREEN_BOTTOM
 66
1
 70
0
 40
0.000000
 41
0.000000
 39
0.000000
  0
VERTEX
  8
PG_SILKSCREEN_BOTTOM
 10
103.240002
 20
1.740002
 40
0.499999
 41
0.499999
 42
0.000000
  0
VERTEX
  8
PG_SILKSCREEN_BOTTOM
 10
103.240002
 20
5.879998
 40
0.499999
 41
0.499999
 42
0.000000
  0
SEQEND
  0
POLYLINE
  8
PG_SILKSCREEN_BOTTOM
 66
1
 70
0
 40
0.000000
 41
0.000000
 39
0.000000
  0
VERTEX
  8
PG_SILKSCREEN_BOTTOM
 10
105.780002
 20
1.740002
 40
0.499999
 41
0.499999
 42
0.000000
  0
VERTEX
  8
PG_SILKSCREEN_BOTTOM
 10
105.780002
 20
5.879998
 40
0.499999
 41
0.499999
 42
0.000000
  0
SEQEND
  0
POLYLINE
  8
PG_SILKSCREEN_BOTTOM
 66
1
 70
0
 40
0.000000
 41
0.000000
 39
0.000000
  0
VERTEX
  8
PG_SILKSCREEN_BOTTOM
 10
108.320002
 20
1.740002
 40
0.499999
 41
0.499999
 42
0.000000
  0
VERTEX
  8
PG_SILKSCREEN_BOTTOM
 10
108.320002
 20
5.879998
 40
0.499999
 41
0.499999
 42
0.000000
  0
SEQEND
  0
POLYLINE
  8
PG_SILKSCREEN_BOTTOM
 66
1
 70
0
 40
0.000000
 41
0.000000
 39
0.000000
  0
VERTEX
  8
PG_SILKSCREEN_BOTTOM
 10
110.860002
 20
1.740002
 40
0.499999
 41
0.499999
 42
0.000000
  0
VERTEX
  8
PG_SILKSCREEN_BOTTOM
 10
110.860002
 20
5.879998
 40
0.499999
 41
0.499999
 42
0.000000
  0
SEQEND
  0
POLYLINE
  8
BG_SILKSCREEN_BOTTOM
 66
1
 70
0
 40
0.000000
 41
0.000000
 39
0.000000
  0
VERTEX
  8
BG_SILKSCREEN_BOTTOM
 10
15.034006
 20
16.050006
 40
0.150012
 41
0.150012
 42
0.000000
  0
VERTEX
  8
BG_SILKSCREEN_BOTTOM
 10
21.033994
 20
16.050006
 40
0.150012
 41
0.150012
 42
0.000000
  0
VERTEX
  8
BG_SILKSCREEN_BOTTOM
 10
21.033994
 20
22.049994
 40
0.150012
 41
0.150012
 42
0.000000
  0
VERTEX
  8
BG_SILKSCREEN_BOTTOM
 10
15.034006
 20
22.049994
 40
0.150012
 41
0.150012
 42
0.000000
  0
VERTEX
  8
BG_SILKSCREEN_BOTTOM
 10
15.034006
 20
16.050006
 40
0.150012
 41
0.150012
 42
0.000000
  0
SEQEND
  0
CIRCLE
  8
PIN_BOTTOM
 10
148.923121
 20
4.544797
 40
0.499999
  0
CIRCLE
  8
PIN_BOTTOM
 10
156.923105
 20
4.544797
 40
0.499999
  0
CIRCLE
  8
PIN_BOTTOM
 10
165.290475
 20
113.440820
 40
0.324993
  0
CIRCLE
  8
PIN_BOTTOM
 10
159.509485
 20
113.440820
 40
0.324993
  0
POLYLINE
  8
PIN_BOTTOM
 66
1
 70
1
 40
0.000000
 41
0.000000
 39
0.000000
  0
VERTEX
  8
PIN_BOTTOM
 10
166.170432
 20
116.800935
 40
0.000000
 41
0.000000
 42
0.000000
  0
VERTEX
  8
PIN_BOTTOM
 10
166.170432
 20
117.400883
 40
0.000000
 41
0.000000
 42
-1.000000
  0
VERTEX
  8
PIN_BOTTOM
 10
167.270506
 20
117.400883
 40
0.000000
 41
0.000000
 42
0.000000
  0
VERTEX
  8
PIN_BOTTOM
 10
167.270506
 20
116.800935
 40
0.000000
 41
0.000000
 42
-1.000000
  0
SEQEND
  0
POLYLINE
  8
PIN_BOTTOM
 66
1
 70
1
 40
0.000000
 41
0.000000
 39
0.000000
  0
VERTEX
  8
PIN_BOTTOM
 10
157.529454
 20
116.800935
 40
0.000000
 41
0.000000
 42
0.000000
  0
VERTEX
  8
PIN_BOTTOM
 10
157.529454
 20
117.400883
 40
0.000000
 41
0.000000
 42
-1.000000
  0
VERTEX
  8
PIN_BOTTOM
 10
158.629528
 20
117.400883
 40
0.000000
 41
0.000000
 42
0.000000
  0
VERTEX
  8
PIN_BOTTOM
 10
158.629528
 20
116.800935
 40
0.000000
 41
0.000000
 42
-1.000000
  0
SEQEND
  0
POLYLINE
  8
PIN_BOTTOM
 66
1
 70
1
 40
0.000000
 41
0.000000
 39
0.000000
  0
VERTEX
  8
PIN_BOTTOM
 10
166.170432
 20
112.359999
 40
0.000000
 41
0.000000
 42
0.000000
  0
VERTEX
  8
PIN_BOTTOM
 10
166.170432
 20
113.459819
 40
0.000000
 41
0.000000
 42
-1.000000
  0
VERTEX
  8
PIN_BOTTOM
 10
167.270506
 20
113.459819
 40
0.000000
 41
0.000000
 42
0.000000
  0
VERTEX
  8
PIN_BOTTOM
 10
167.270506
 20
112.359999
 40
0.000000
 41
0.000000
 42
-1.000000
  0
SEQEND
  0
POLYLINE
  8
PIN_BOTTOM
 66
1
 70
1
 40
0.000000
 41
0.000000
 39
0.000000
  0
VERTEX
  8
PIN_BOTTOM
 10
157.529454
 20
112.359999
 40
0.000000
 41
0.000000
 42
0.000000
  0
VERTEX
  8
PIN_BOTTOM
 10
157.529454
 20
113.459819
 40
0.000000
 41
0.000000
 42
-1.000000
  0
VERTEX
  8
PIN_BOTTOM
 10
158.629528
 20
113.459819
 40
0.000000
 41
0.000000
 42
0.000000
  0
VERTEX
  8
PIN_BOTTOM
 10
158.629528
 20
112.359999
 40
0.000000
 41
0.000000
 42
-1.000000
  0
SEQEND
  0
CIRCLE
  8
PIN_BOTTOM
 10
6.760794
 20
65.590496
 40
0.324993
  0
CIRCLE
  8
PIN_BOTTOM
 10
6.760794
 20
59.809507
 40
0.324993
  0
POLYLINE
  8
PIN_BOTTOM
 66
1
 70
1
 40
0.000000
 41
0.000000
 39
0.000000
  0
VERTEX
  8
PIN_BOTTOM
 10
3.400679
 20
66.470454
 40
0.000000
 41
0.000000
 42
0.000000
  0
VERTEX
  8
PIN_BOTTOM
 10
2.800731
 20
66.470454
 40
0.000000
 41
0.000000
 42
-1.000000
  0
VERTEX
  8
PIN_BOTTOM
 10
2.800731
 20
67.570528
 40
0.000000
 41
0.000000
 42
0.000000
  0
VERTEX
  8
PIN_BOTTOM
 10
3.400679
 20
67.570528
 40
0.000000
 41
0.000000
 42
-1.000000
  0
SEQEND
  0
POLYLINE
  8
PIN_BOTTOM
 66
1
 70
1
 40
0.000000
 41
0.000000
 39
0.000000
  0
VERTEX
  8
PIN_BOTTOM
 10
3.400679
 20
57.829475
 40
0.000000
 41
0.000000
 42
0.000000
  0
VERTEX
  8
PIN_BOTTOM
 10
2.800731
 20
57.829475
 40
0.000000
 41
0.000000
 42
-1.000000
  0
VERTEX
  8
PIN_BOTTOM
 10
2.800731
 20
58.929549
 40
0.000000
 41
0.000000
 42
0.000000
  0
VERTEX
  8
PIN_BOTTOM
 10
3.400679
 20
58.929549
 40
0.000000
 41
0.000000
 42
-1.000000
  0
SEQEND
  0
POLYLINE
  8
PIN_BOTTOM
 66
1
 70
1
 40
0.000000
 41
0.000000
 39
0.000000
  0
VERTEX
  8
PIN_BOTTOM
 10
7.841615
 20
66.470454
 40
0.000000
 41
0.000000
 42
0.000000
  0
VERTEX
  8
PIN_BOTTOM
 10
6.741795
 20
66.470454
 40
0.000000
 41
0.000000
 42
-1.000000
  0
VERTEX
  8
PIN_BOTTOM
 10
6.741795
 20
67.570528
 40
0.000000
 41
0.000000
 42
0.000000
  0
VERTEX
  8
PIN_BOTTOM
 10
7.841615
 20
67.570528
 40
0.000000
 41
0.000000
 42
-1.000000
  0
SEQEND
  0
POLYLINE
  8
PIN_BOTTOM
 66
1
 70
1
 40
0.000000
 41
0.000000
 39
0.000000
  0
VERTEX
  8
PIN_BOTTOM
 10
7.841615
 20
57.829475
 40
0.000000
 41
0.000000
 42
0.000000
  0
VERTEX
  8
PIN_BOTTOM
 10
6.741795
 20
57.829475
 40
0.000000
 41
0.000000
 42
-1.000000
  0
VERTEX
  8
PIN_BOTTOM
 10
6.741795
 20
58.929549
 40
0.000000
 41
0.000000
 42
0.000000
  0
VERTEX
  8
PIN_BOTTOM
 10
7.841615
 20
58.929549
 40
0.000000
 41
0.000000
 42
-1.000000
  0
SEQEND
  0
CIRCLE
  8
PIN_BOTTOM
 10
85.938004
 20
65.947011
 40
0.299999
  0
CIRCLE
  8
PIN_BOTTOM
 10
102.338022
 20
65.947011
 40
0.299999
  0
CIRCLE
  8
PIN_BOTTOM
 10
61.938052
 20
65.947011
 40
0.299999
  0
CIRCLE
  8
PIN_BOTTOM
 10
78.338070
 20
65.947011
 40
0.299999
  0
CIRCLE
  8
PIN_BOTTOM
 10
102.338022
 20
31.447054
 40
0.299999
  0
CIRCLE
  8
PIN_BOTTOM
 10
85.938004
 20
31.447054
 40
0.299999
  0
CIRCLE
  8
PIN_BOTTOM
 10
78.338070
 20
31.447054
 40
0.299999
  0
CIRCLE
  8
PIN_BOTTOM
 10
61.938052
 20
31.447054
 40
0.299999
  0
POLYLINE
  8
PIN_BOTTOM
 66
1
 70
1
 40
0.000000
 41
0.000000
 39
0.000000
  0
VERTEX
  8
PIN_BOTTOM
 10
170.287518
 20
30.735194
 40
0.000000
 41
0.000000
 42
0.000000
  0
VERTEX
  8
PIN_BOTTOM
 10
171.074918
 20
30.735194
 40
0.000000
 41
0.000000
 42
-1.000000
  0
VERTEX
  8
PIN_BOTTOM
 10
171.074918
 20
29.236594
 40
0.000000
 41
0.000000
 42
0.000000
  0
VERTEX
  8
PIN_BOTTOM
 10
170.287518
 20
29.236594
 40
0.000000
 41
0.000000
 42
-1.000000
  0
SEQEND
  0
POLYLINE
  8
PIN_BOTTOM
 66
1
 70
1
 40
0.000000
 41
0.000000
 39
0.000000
  0
VERTEX
  8
PIN_BOTTOM
 10
170.287518
 20
16.235401
 40
0.000000
 41
0.000000
 42
0.000000
  0
VERTEX
  8
PIN_BOTTOM
 10
171.074918
 20
16.235401
 40
0.000000
 41
0.000000
 42
-1.000000
  0
VERTEX
  8
PIN_BOTTOM
 10
171.074918
 20
14.736801
 40
0.000000
 41
0.000000
 42
0.000000
  0
VERTEX
  8
PIN_BOTTOM
 10
170.287518
 20
14.736801
 40
0.000000
 41
0.000000
 42
-1.000000
  0
SEQEND
  0
POLYLINE
  8
PIN_BOTTOM
 66
1
 70
1
 40
0.000000
 41
0.000000
 39
0.000000
  0
VERTEX
  8
PIN_BOTTOM
 10
164.084305
 20
30.735194
 40
0.000000
 41
0.000000
 42
0.000000
  0
VERTEX
  8
PIN_BOTTOM
 10
165.278105
 20
30.735194
 40
0.000000
 41
0.000000
 42
-1.000000
  0
VERTEX
  8
PIN_BOTTOM
 10
165.278105
 20
29.236594
 40
0.000000
 41
0.000000
 42
0.000000
  0
VERTEX
  8
PIN_BOTTOM
 10
164.084305
 20
29.236594
 40
0.000000
 41
0.000000
 42
-1.000000
  0
SEQEND
  0
POLYLINE
  8
PIN_BOTTOM
 66
1
 70
1
 40
0.000000
 41
0.000000
 39
0.000000
  0
VERTEX
  8
PIN_BOTTOM
 10
164.084305
 20
16.235401
 40
0.000000
 41
0.000000
 42
0.000000
  0
VERTEX
  8
PIN_BOTTOM
 10
165.278105
 20
16.235401
 40
0.000000
 41
0.000000
 42
-1.000000
  0
VERTEX
  8
PIN_BOTTOM
 10
165.278105
 20
14.736801
 40
0.000000
 41
0.000000
 42
0.000000
  0
VERTEX
  8
PIN_BOTTOM
 10
164.084305
 20
14.736801
 40
0.000000
 41
0.000000
 42
-1.000000
  0
SEQEND
  0
CIRCLE
  8
PIN_BOTTOM
 10
80.820108
 20
99.679100
 40
0.799998
  0
CIRCLE
  8
PIN_BOTTOM
 10
78.280108
 20
99.679100
 40
0.799998
  0
CIRCLE
  8
PIN_BOTTOM
 10
75.740108
 20
99.679100
 40
0.799998
  0
CIRCLE
  8
PIN_BOTTOM
 10
73.200108
 20
99.679100
 40
0.799998
  0
CIRCLE
  8
PIN_BOTTOM
 10
70.660108
 20
99.679100
 40
0.799998
  0
CIRCLE
  8
PIN_BOTTOM
 10
79.550108
 20
102.219100
 40
0.799998
  0
CIRCLE
  8
PIN_BOTTOM
 10
77.010108
 20
102.219100
 40
0.799998
  0
CIRCLE
  8
PIN_BOTTOM
 10
74.470108
 20
102.219100
 40
0.799998
  0
CIRCLE
  8
PIN_BOTTOM
 10
71.930108
 20
102.219100
 40
0.799998
  0
CIRCLE
  8
PIN_BOTTOM
 10
69.390108
 20
102.219100
 40
0.799998
  0
CIRCLE
  8
PIN_BOTTOM
 10
81.725110
 20
113.469293
 40
0.899998
  0
CIRCLE
  8
PIN_BOTTOM
 10
79.185110
 20
113.469293
 40
0.899998
  0
CIRCLE
  8
PIN_BOTTOM
 10
71.014895
 20
113.469293
 40
0.899998
  0
CIRCLE
  8
PIN_BOTTOM
 10
68.474895
 20
113.469293
 40
0.899998
  0
CIRCLE
  8
PIN_BOTTOM
 10
82.844996
 20
105.519093
 40
1.214996
  0
CIRCLE
  8
PIN_BOTTOM
 10
67.355009
 20
105.519093
 40
1.214996
  0
CIRCLE
  8
PIN_BOTTOM
 10
80.815002
 20
108.569100
 40
1.625003
  0
CIRCLE
  8
PIN_BOTTOM
 10
69.385002
 20
108.569100
 40
1.625003
  0
POLYLINE
  8
PG_SILKSCREEN_BOTTOM
 66
1
 70
1
 40
0.000000
 41
0.000000
 39
0.000000
  0
VERTEX
  8
PG_SILKSCREEN_BOTTOM
 10
67.899991
 20
103.569110
 40
0.000000
 41
0.000000
 42
0.000000
  0
VERTEX
  8
PG_SILKSCREEN_BOTTOM
 10
67.899991
 20
98.169095
 40
0.000000
 41
0.000000
 42
0.000000
  0
VERTEX
  8
PG_SILKSCREEN_BOTTOM
 10
82.100014
 20
98.169095
 40
0.000000
 41
0.000000
 42
0.000000
  0
VERTEX
  8
PG_SILKSCREEN_BOTTOM
 10
82.100014
 20
103.569110
 40
0.000000
 41
0.000000
 42
0.000000
  0
SEQEND
  0
POLYLINE
  8
PG_SILKSCREEN_BOTTOM
 66
1
 70
1
 40
0.000000
 41
0.000000
 39
0.000000
  0
VERTEX
  8
PG_SILKSCREEN_BOTTOM
 10
81.720106
 20
99.679100
 40
0.000000
 41
0.000000
 42
1.000000
  0
VERTEX
  8
PG_SILKSCREEN_BOTTOM
 10
79.920099
 20
99.679100
 40
0.000000
 41
0.000000
 42
1.000000
  0
SEQEND
  0
POLYLINE
  8
PG_SILKSCREEN_BOTTOM
 66
1
 70
1
 40
0.000000
 41
0.000000
 39
0.000000
  0
VERTEX
  8
PG_SILKSCREEN_BOTTOM
 10
80.450106
 20
102.219100
 40
0.000000
 41
0.000000
 42
1.000000
  0
VERTEX
  8
PG_SILKSCREEN_BOTTOM
 10
78.650099
 20
102.219100
 40
0.000000
 41
0.000000
 42
1.000000
  0
SEQEND
  0
POLYLINE
  8
PG_SILKSCREEN_BOTTOM
 66
1
 70
1
 40
0.000000
 41
0.000000
 39
0.000000
  0
VERTEX
  8
PG_SILKSCREEN_BOTTOM
 10
79.180106
 20
99.679100
 40
0.000000
 41
0.000000
 42
1.000000
  0
VERTEX
  8
PG_SILKSCREEN_BOTTOM
 10
77.380099
 20
99.679100
 40
0.000000
 41
0.000000
 42
1.000000
  0
SEQEND
  0
POLYLINE
  8
PG_SILKSCREEN_BOTTOM
 66
1
 70
1
 40
0.000000
 41
0.000000
 39
0.000000
  0
VERTEX
  8
PG_SILKSCREEN_BOTTOM
 10
77.910106
 20
102.219100
 40
0.000000
 41
0.000000
 42
1.000000
  0
VERTEX
  8
PG_SILKSCREEN_BOTTOM
 10
76.110099
 20
102.219100
 40
0.000000
 41
0.000000
 42
1.000000
  0
SEQEND
  0
POLYLINE
  8
PG_SILKSCREEN_BOTTOM
 66
1
 70
1
 40
0.000000
 41
0.000000
 39
0.000000
  0
VERTEX
  8
PG_SILKSCREEN_BOTTOM
 10
75.370106
 20
102.219100
 40
0.000000
 41
0.000000
 42
1.000000
  0
VERTEX
  8
PG_SILKSCREEN_BOTTOM
 10
73.570099
 20
102.219100
 40
0.000000
 41
0.000000
 42
1.000000
  0
SEQEND
  0
POLYLINE
  8
PG_SILKSCREEN_BOTTOM
 66
1
 70
1
 40
0.000000
 41
0.000000
 39
0.000000
  0
VERTEX
  8
PG_SILKSCREEN_BOTTOM
 10
76.640106
 20
99.679100
 40
0.000000
 41
0.000000
 42
1.000000
  0
VERTEX
  8
PG_SILKSCREEN_BOTTOM
 10
74.840099
 20
99.679100
 40
0.000000
 41
0.000000
 42
1.000000
  0
SEQEND
  0
POLYLINE
  8
PG_SILKSCREEN_BOTTOM
 66
1
 70
1
 40
0.000000
 41
0.000000
 39
0.000000
  0
VERTEX
  8
PG_SILKSCREEN_BOTTOM
 10
74.100106
 20
99.679100
 40
0.000000
 41
0.000000
 42
1.000000
  0
VERTEX
  8
PG_SILKSCREEN_BOTTOM
 10
72.300099
 20
99.679100
 40
0.000000
 41
0.000000
 42
1.000000
  0
SEQEND
  0
POLYLINE
  8
PG_SILKSCREEN_BOTTOM
 66
1
 70
1
 40
0.000000
 41
0.000000
 39
0.000000
  0
VERTEX
  8
PG_SILKSCREEN_BOTTOM
 10
72.830106
 20
102.219100
 40
0.000000
 41
0.000000
 42
1.000000
  0
VERTEX
  8
PG_SILKSCREEN_BOTTOM
 10
71.030099
 20
102.219100
 40
0.000000
 41
0.000000
 42
1.000000
  0
SEQEND
  0
POLYLINE
  8
PG_SILKSCREEN_BOTTOM
 66
1
 70
1
 40
0.000000
 41
0.000000
 39
0.000000
  0
VERTEX
  8
PG_SILKSCREEN_BOTTOM
 10
71.560106
 20
99.679100
 40
0.000000
 41
0.000000
 42
1.000000
  0
VERTEX
  8
PG_SILKSCREEN_BOTTOM
 10
69.760099
 20
99.679100
 40
0.000000
 41
0.000000
 42
1.000000
  0
SEQEND
  0
POLYLINE
  8
PG_SILKSCREEN_BOTTOM
 66
1
 70
1
 40
0.000000
 41
0.000000
 39
0.000000
  0
VERTEX
  8
PG_SILKSCREEN_BOTTOM
 10
70.290106
 20
102.219100
 40
0.000000
 41
0.000000
 42
1.000000
  0
VERTEX
  8
PG_SILKSCREEN_BOTTOM
 10
68.490099
 20
102.219100
 40
0.000000
 41
0.000000
 42
1.000000
  0
SEQEND
  0
POLYLINE
  8
PG_SILKSCREEN_BOTTOM
 66
1
 70
1
 40
0.000000
 41
0.000000
 39
0.000000
  0
VERTEX
  8
PG_SILKSCREEN_BOTTOM
 10
66.899993
 20
115.169112
 40
0.000000
 41
0.000000
 42
0.000000
  0
VERTEX
  8
PG_SILKSCREEN_BOTTOM
 10
66.899993
 20
111.769093
 40
0.000000
 41
0.000000
 42
0.000000
  0
VERTEX
  8
PG_SILKSCREEN_BOTTOM
 10
72.700007
 20
111.769093
 40
0.000000
 41
0.000000
 42
0.000000
  0
VERTEX
  8
PG_SILKSCREEN_BOTTOM
 10
72.700007
 20
115.169112
 40
0.000000
 41
0.000000
 42
0.000000
  0
SEQEND
  0
POLYLINE
  8
PG_SILKSCREEN_BOTTOM
 66
1
 70
1
 40
0.000000
 41
0.000000
 39
0.000000
  0
VERTEX
  8
PG_SILKSCREEN_BOTTOM
 10
72.014918
 20
113.469293
 40
0.000000
 41
0.000000
 42
1.000000
  0
VERTEX
  8
PG_SILKSCREEN_BOTTOM
 10
70.014886
 20
113.469306
 40
0.000000
 41
0.000000
 42
1.000000
  0
SEQEND
  0
POLYLINE
  8
PG_SILKSCREEN_BOTTOM
 66
1
 70
1
 40
0.000000
 41
0.000000
 39
0.000000
  0
VERTEX
  8
PG_SILKSCREEN_BOTTOM
 10
69.474918
 20
113.469293
 40
0.000000
 41
0.000000
 42
1.000000
  0
VERTEX
  8
PG_SILKSCREEN_BOTTOM
 10
67.474886
 20
113.469306
 40
0.000000
 41
0.000000
 42
1.000000
  0
SEQEND
  0
POLYLINE
  8
PG_SILKSCREEN_BOTTOM
 66
1
 70
1
 40
0.000000
 41
0.000000
 39
0.000000
  0
VERTEX
  8
PG_SILKSCREEN_BOTTOM
 10
77.610208
 20
115.169112
 40
0.000000
 41
0.000000
 42
0.000000
  0
VERTEX
  8
PG_SILKSCREEN_BOTTOM
 10
77.610208
 20
111.769093
 40
0.000000
 41
0.000000
 42
0.000000
  0
VERTEX
  8
PG_SILKSCREEN_BOTTOM
 10
83.410196
 20
111.769093
 40
0.000000
 41
0.000000
 42
0.000000
  0
VERTEX
  8
PG_SILKSCREEN_BOTTOM
 10
83.410196
 20
115.169112
 40
0.000000
 41
0.000000
 42
0.000000
  0
SEQEND
  0
POLYLINE
  8
PG_SILKSCREEN_BOTTOM
 66
1
 70
1
 40
0.000000
 41
0.000000
 39
0.000000
  0
VERTEX
  8
PG_SILKSCREEN_BOTTOM
 10
80.185108
 20
113.469293
 40
0.000000
 41
0.000000
 42
1.000000
  0
VERTEX
  8
PG_SILKSCREEN_BOTTOM
 10
78.185097
 20
113.469306
 40
0.000000
 41
0.000000
 42
1.000000
  0
SEQEND
  0
POLYLINE
  8
PG_SILKSCREEN_BOTTOM
 66
1
 70
1
 40
0.000000
 41
0.000000
 39
0.000000
  0
VERTEX
  8
PG_SILKSCREEN_BOTTOM
 10
82.725108
 20
113.469293
 40
0.000000
 41
0.000000
 42
1.000000
  0
VERTEX
  8
PG_SILKSCREEN_BOTTOM
 10
80.725097
 20
113.469306
 40
0.000000
 41
0.000000
 42
1.000000
  0
SEQEND
  0
CIRCLE
  8
PIN_BOTTOM
 10
106.320057
 20
99.679100
 40
0.799998
  0
CIRCLE
  8
PIN_BOTTOM
 10
103.780057
 20
99.679100
 40
0.799998
  0
CIRCLE
  8
PIN_BOTTOM
 10
101.240057
 20
99.679100
 40
0.799998
  0
CIRCLE
  8
PIN_BOTTOM
 10
98.700057
 20
99.679100
 40
0.799998
  0
CIRCLE
  8
PIN_BOTTOM
 10
96.160057
 20
99.679100
 40
0.799998
  0
CIRCLE
  8
PIN_BOTTOM
 10
105.050057
 20
102.219100
 40
0.799998
  0
CIRCLE
  8
PIN_BOTTOM
 10
102.510057
 20
102.219100
 40
0.799998
  0
CIRCLE
  8
PIN_BOTTOM
 10
99.970057
 20
102.219100
 40
0.799998
  0
CIRCLE
  8
PIN_BOTTOM
 10
97.430057
 20
102.219100
 40
0.799998
  0
CIRCLE
  8
PIN_BOTTOM
 10
94.890057
 20
102.219100
 40
0.799998
  0
CIRCLE
  8
PIN_BOTTOM
 10
107.225059
 20
113.469293
 40
0.899998
  0
CIRCLE
  8
PIN_BOTTOM
 10
104.685059
 20
113.469293
 40
0.899998
  0
CIRCLE
  8
PIN_BOTTOM
 10
96.514844
 20
113.469293
 40
0.899998
  0
CIRCLE
  8
PIN_BOTTOM
 10
93.974844
 20
113.469293
 40
0.899998
  0
CIRCLE
  8
PIN_BOTTOM
 10
108.344945
 20
105.519093
 40
1.214996
  0
CIRCLE
  8
PIN_BOTTOM
 10
92.854958
 20
105.519093
 40
1.214996
  0
CIRCLE
  8
PIN_BOTTOM
 10
106.314951
 20
108.569100
 40
1.625003
  0
CIRCLE
  8
PIN_BOTTOM
 10
94.884951
 20
108.569100
 40
1.625003
  0
POLYLINE
  8
PG_SILKSCREEN_BOTTOM
 66
1
 70
1
 40
0.000000
 41
0.000000
 39
0.000000
  0
VERTEX
  8
PG_SILKSCREEN_BOTTOM
 10
93.399940
 20
103.569110
 40
0.000000
 41
0.000000
 42
0.000000
  0
VERTEX
  8
PG_SILKSCREEN_BOTTOM
 10
93.399940
 20
98.169095
 40
0.000000
 41
0.000000
 42
0.000000
  0
VERTEX
  8
PG_SILKSCREEN_BOTTOM
 10
107.599963
 20
98.169095
 40
0.000000
 41
0.000000
 42
0.000000
  0
VERTEX
  8
PG_SILKSCREEN_BOTTOM
 10
107.599963
 20
103.569110
 40
0.000000
 41
0.000000
 42
0.000000
  0
SEQEND
  0
POLYLINE
  8
PG_SILKSCREEN_BOTTOM
 66
1
 70
1
 40
0.000000
 41
0.000000
 39
0.000000
  0
VERTEX
  8
PG_SILKSCREEN_BOTTOM
 10
107.220055
 20
99.679100
 40
0.000000
 41
0.000000
 42
1.000000
  0
VERTEX
  8
PG_SILKSCREEN_BOTTOM
 10
105.420048
 20
99.679100
 40
0.000000
 41
0.000000
 42
1.000000
  0
SEQEND
  0
POLYLINE
  8
PG_SILKSCREEN_BOTTOM
 66
1
 70
1
 40
0.000000
 41
0.000000
 39
0.000000
  0
VERTEX
  8
PG_SILKSCREEN_BOTTOM
 10
105.950055
 20
102.219100
 40
0.000000
 41
0.000000
 42
1.000000
  0
VERTEX
  8
PG_SILKSCREEN_BOTTOM
 10
104.150048
 20
102.219100
 40
0.000000
 41
0.000000
 42
1.000000
  0
SEQEND
  0
POLYLINE
  8
PG_SILKSCREEN_BOTTOM
 66
1
 70
1
 40
0.000000
 41
0.000000
 39
0.000000
  0
VERTEX
  8
PG_SILKSCREEN_BOTTOM
 10
104.680055
 20
99.679100
 40
0.000000
 41
0.000000
 42
1.000000
  0
VERTEX
  8
PG_SILKSCREEN_BOTTOM
 10
102.880048
 20
99.679100
 40
0.000000
 41
0.000000
 42
1.000000
  0
SEQEND
  0
POLYLINE
  8
PG_SILKSCREEN_BOTTOM
 66
1
 70
1
 40
0.000000
 41
0.000000
 39
0.000000
  0
VERTEX
  8
PG_SILKSCREEN_BOTTOM
 10
103.410055
 20
102.219100
 40
0.000000
 41
0.000000
 42
1.000000
  0
VERTEX
  8
PG_SILKSCREEN_BOTTOM
 10
101.610048
 20
102.219100
 40
0.000000
 41
0.000000
 42
1.000000
  0
SEQEND
  0
POLYLINE
  8
PG_SILKSCREEN_BOTTOM
 66
1
 70
1
 40
0.000000
 41
0.000000
 39
0.000000
  0
VERTEX
  8
PG_SILKSCREEN_BOTTOM
 10
100.870055
 20
102.219100
 40
0.000000
 41
0.000000
 42
1.000000
  0
VERTEX
  8
PG_SILKSCREEN_BOTTOM
 10
99.070048
 20
102.219100
 40
0.000000
 41
0.000000
 42
1.000000
  0
SEQEND
  0
POLYLINE
  8
PG_SILKSCREEN_BOTTOM
 66
1
 70
1
 40
0.000000
 41
0.000000
 39
0.000000
  0
VERTEX
  8
PG_SILKSCREEN_BOTTOM
 10
102.140055
 20
99.679100
 40
0.000000
 41
0.000000
 42
1.000000
  0
VERTEX
  8
PG_SILKSCREEN_BOTTOM
 10
100.340048
 20
99.679100
 40
0.000000
 41
0.000000
 42
1.000000
  0
SEQEND
  0
POLYLINE
  8
PG_SILKSCREEN_BOTTOM
 66
1
 70
1
 40
0.000000
 41
0.000000
 39
0.000000
  0
VERTEX
  8
PG_SILKSCREEN_BOTTOM
 10
99.600055
 20
99.679100
 40
0.000000
 41
0.000000
 42
1.000000
  0
VERTEX
  8
PG_SILKSCREEN_BOTTOM
 10
97.800048
 20
99.679100
 40
0.000000
 41
0.000000
 42
1.000000
  0
SEQEND
  0
POLYLINE
  8
PG_SILKSCREEN_BOTTOM
 66
1
 70
1
 40
0.000000
 41
0.000000
 39
0.000000
  0
VERTEX
  8
PG_SILKSCREEN_BOTTOM
 10
98.330055
 20
102.219100
 40
0.000000
 41
0.000000
 42
1.000000
  0
VERTEX
  8
PG_SILKSCREEN_BOTTOM
 10
96.530048
 20
102.219100
 40
0.000000
 41
0.000000
 42
1.000000
  0
SEQEND
  0
POLYLINE
  8
PG_SILKSCREEN_BOTTOM
 66
1
 70
1
 40
0.000000
 41
0.000000
 39
0.000000
  0
VERTEX
  8
PG_SILKSCREEN_BOTTOM
 10
97.060055
 20
99.679100
 40
0.000000
 41
0.000000
 42
1.000000
  0
VERTEX
  8
PG_SILKSCREEN_BOTTOM
 10
95.260048
 20
99.679100
 40
0.000000
 41
0.000000
 42
1.000000
  0
SEQEND
  0
POLYLINE
  8
PG_SILKSCREEN_BOTTOM
 66
1
 70
1
 40
0.000000
 41
0.000000
 39
0.000000
  0
VERTEX
  8
PG_SILKSCREEN_BOTTOM
 10
95.790055
 20
102.219100
 40
0.000000
 41
0.000000
 42
1.000000
  0
VERTEX
  8
PG_SILKSCREEN_BOTTOM
 10
93.990048
 20
102.219100
 40
0.000000
 41
0.000000
 42
1.000000
  0
SEQEND
  0
POLYLINE
  8
PG_SILKSCREEN_BOTTOM
 66
1
 70
1
 40
0.000000
 41
0.000000
 39
0.000000
  0
VERTEX
  8
PG_SILKSCREEN_BOTTOM
 10
92.399942
 20
115.169112
 40
0.000000
 41
0.000000
 42
0.000000
  0
VERTEX
  8
PG_SILKSCREEN_BOTTOM
 10
92.399942
 20
111.769093
 40
0.000000
 41
0.000000
 42
0.000000
  0
VERTEX
  8
PG_SILKSCREEN_BOTTOM
 10
98.199956
 20
111.769093
 40
0.000000
 41
0.000000
 42
0.000000
  0
VERTEX
  8
PG_SILKSCREEN_BOTTOM
 10
98.199956
 20
115.169112
 40
0.000000
 41
0.000000
 42
0.000000
  0
SEQEND
  0
POLYLINE
  8
PG_SILKSCREEN_BOTTOM
 66
1
 70
1
 40
0.000000
 41
0.000000
 39
0.000000
  0
VERTEX
  8
PG_SILKSCREEN_BOTTOM
 10
97.514867
 20
113.469293
 40
0.000000
 41
0.000000
 42
1.000000
  0
VERTEX
  8
PG_SILKSCREEN_BOTTOM
 10
95.514835
 20
113.469306
 40
0.000000
 41
0.000000
 42
1.000000
  0
SEQEND
  0
POLYLINE
  8
PG_SILKSCREEN_BOTTOM
 66
1
 70
1
 40
0.000000
 41
0.000000
 39
0.000000
  0
VERTEX
  8
PG_SILKSCREEN_BOTTOM
 10
94.974867
 20
113.469293
 40
0.000000
 41
0.000000
 42
1.000000
  0
VERTEX
  8
PG_SILKSCREEN_BOTTOM
 10
92.974835
 20
113.469306
 40
0.000000
 41
0.000000
 42
1.000000
  0
SEQEND
  0
POLYLINE
  8
PG_SILKSCREEN_BOTTOM
 66
1
 70
1
 40
0.000000
 41
0.000000
 39
0.000000
  0
VERTEX
  8
PG_SILKSCREEN_BOTTOM
 10
103.110157
 20
115.169112
 40
0.000000
 41
0.000000
 42
0.000000
  0
VERTEX
  8
PG_SILKSCREEN_BOTTOM
 10
103.110157
 20
111.769093
 40
0.000000
 41
0.000000
 42
0.000000
  0
VERTEX
  8
PG_SILKSCREEN_BOTTOM
 10
108.910145
 20
111.769093
 40
0.000000
 41
0.000000
 42
0.000000
  0
VERTEX
  8
PG_SILKSCREEN_BOTTOM
 10
108.910145
 20
115.169112
 40
0.000000
 41
0.000000
 42
0.000000
  0
SEQEND
  0
POLYLINE
  8
PG_SILKSCREEN_BOTTOM
 66
1
 70
1
 40
0.000000
 41
0.000000
 39
0.000000
  0
VERTEX
  8
PG_SILKSCREEN_BOTTOM
 10
105.685057
 20
113.469293
 40
0.000000
 41
0.000000
 42
1.000000
  0
VERTEX
  8
PG_SILKSCREEN_BOTTOM
 10
103.685046
 20
113.469306
 40
0.000000
 41
0.000000
 42
1.000000
  0
SEQEND
  0
POLYLINE
  8
PG_SILKSCREEN_BOTTOM
 66
1
 70
1
 40
0.000000
 41
0.000000
 39
0.000000
  0
VERTEX
  8
PG_SILKSCREEN_BOTTOM
 10
108.225057
 20
113.469293
 40
0.000000
 41
0.000000
 42
1.000000
  0
VERTEX
  8
PG_SILKSCREEN_BOTTOM
 10
106.225046
 20
113.469306
 40
0.000000
 41
0.000000
 42
1.000000
  0
SEQEND
  0
CIRCLE
  8
PIN_BOTTOM
 10
152.500101
 20
102.942720
 40
0.799998
  0
CIRCLE
  8
PIN_BOTTOM
 10
150.000005
 20
102.942720
 40
0.799998
  0
CIRCLE
  8
PIN_BOTTOM
 10
148.000009
 20
102.942720
 40
0.799998
  0
CIRCLE
  8
PIN_BOTTOM
 10
145.499912
 20
102.942720
 40
0.799998
  0
CIRCLE
  8
PIN_BOTTOM
 10
142.450109
 20
102.942720
 40
1.299997
  0
CIRCLE
  8
PIN_BOTTOM
 10
155.549905
 20
102.942720
 40
1.299997
  0
CIRCLE
  8
PIN_BOTTOM
 10
152.500101
 20
105.942714
 40
0.799998
  0
CIRCLE
  8
PIN_BOTTOM
 10
150.000005
 20
105.942714
 40
0.799998
  0
CIRCLE
  8
PIN_BOTTOM
 10
148.000009
 20
105.942714
 40
0.799998
  0
CIRCLE
  8
PIN_BOTTOM
 10
145.499912
 20
105.942714
 40
0.799998
  0
CIRCLE
  8
PIN_BOTTOM
 10
142.450109
 20
108.742810
 40
1.299997
  0
CIRCLE
  8
PIN_BOTTOM
 10
155.549905
 20
108.742810
 40
1.299997
  0
POLYLINE
  8
PG_SILKSCREEN_BOTTOM
 66
1
 70
1
 40
0.000000
 41
0.000000
 39
0.000000
  0
VERTEX
  8
PG_SILKSCREEN_BOTTOM
 10
144.146295
 20
101.586817
 40
0.000000
 41
0.000000
 42
0.000000
  0
VERTEX
  8
PG_SILKSCREEN_BOTTOM
 10
144.146295
 20
102.409498
 40
0.000000
 41
0.000000
 42
0.153462
  0
VERTEX
  8
PG_SILKSCREEN_BOTTOM
 10
144.146295
 20
103.475815
 40
0.000000
 41
0.000000
 42
0.000000
  0
VERTEX
  8
PG_SILKSCREEN_BOTTOM
 10
144.146295
 20
107.241111
 40
0.000000
 41
0.000000
 42
0.000000
  0
VERTEX
  8
PG_SILKSCREEN_BOTTOM
 10
153.953794
 20
107.241111
 40
0.000000
 41
0.000000
 42
0.000000
  0
VERTEX
  8
PG_SILKSCREEN_BOTTOM
 10
153.953794
 20
103.726005
 40
0.000000
 41
0.000000
 42
0.232151
  0
VERTEX
  8
PG_SILKSCREEN_BOTTOM
 10
153.953794
 20
102.159410
 40
0.000000
 41
0.000000
 42
0.000000
  0
VERTEX
  8
PG_SILKSCREEN_BOTTOM
 10
153.953794
 20
101.586817
 40
0.000000
 41
0.000000
 42
0.000000
  0
SEQEND
  0
POLYLINE
  8
PG_SILKSCREEN_BOTTOM
 66
1
 70
1
 40
0.000000
 41
0.000000
 39
0.000000
  0
VERTEX
  8
PG_SILKSCREEN_BOTTOM
 10
153.439901
 20
105.942689
 40
0.000000
 41
0.000000
 42
1.000000
  0
VERTEX
  8
PG_SILKSCREEN_BOTTOM
 10
151.560352
 20
105.942689
 40
0.000000
 41
0.000000
 42
1.000000
  0
SEQEND
  0
POLYLINE
  8
PG_SILKSCREEN_BOTTOM
 66
1
 70
1
 40
0.000000
 41
0.000000
 39
0.000000
  0
VERTEX
  8
PG_SILKSCREEN_BOTTOM
 10
153.439901
 20
102.942695
 40
0.000000
 41
0.000000
 42
1.000000
  0
VERTEX
  8
PG_SILKSCREEN_BOTTOM
 10
151.560352
 20
102.942695
 40
0.000000
 41
0.000000
 42
1.000000
  0
SEQEND
  0
POLYLINE
  8
PG_SILKSCREEN_BOTTOM
 66
1
 70
1
 40
0.000000
 41
0.000000
 39
0.000000
  0
VERTEX
  8
PG_SILKSCREEN_BOTTOM
 10
150.939779
 20
102.942695
 40
0.000000
 41
0.000000
 42
1.000000
  0
VERTEX
  8
PG_SILKSCREEN_BOTTOM
 10
149.060230
 20
102.942695
 40
0.000000
 41
0.000000
 42
1.000000
  0
SEQEND
  0
POLYLINE
  8
PG_SILKSCREEN_BOTTOM
 66
1
 70
1
 40
0.000000
 41
0.000000
 39
0.000000
  0
VERTEX
  8
PG_SILKSCREEN_BOTTOM
 10
148.939783
 20
102.942695
 40
0.000000
 41
0.000000
 42
1.000000
  0
VERTEX
  8
PG_SILKSCREEN_BOTTOM
 10
147.060234
 20
102.942695
 40
0.000000
 41
0.000000
 42
1.000000
  0
SEQEND
  0
POLYLINE
  8
PG_SILKSCREEN_BOTTOM
 66
1
 70
1
 40
0.000000
 41
0.000000
 39
0.000000
  0
VERTEX
  8
PG_SILKSCREEN_BOTTOM
 10
146.439661
 20
102.942695
 40
0.000000
 41
0.000000
 42
1.000000
  0
VERTEX
  8
PG_SILKSCREEN_BOTTOM
 10
144.560112
 20
102.942695
 40
0.000000
 41
0.000000
 42
1.000000
  0
SEQEND
  0
POLYLINE
  8
PG_SILKSCREEN_BOTTOM
 66
1
 70
1
 40
0.000000
 41
0.000000
 39
0.000000
  0
VERTEX
  8
PG_SILKSCREEN_BOTTOM
 10
146.439661
 20
105.942689
 40
0.000000
 41
0.000000
 42
1.000000
  0
VERTEX
  8
PG_SILKSCREEN_BOTTOM
 10
144.560112
 20
105.942689
 40
0.000000
 41
0.000000
 42
1.000000
  0
SEQEND
  0
POLYLINE
  8
PG_SILKSCREEN_BOTTOM
 66
1
 70
1
 40
0.000000
 41
0.000000
 39
0.000000
  0
VERTEX
  8
PG_SILKSCREEN_BOTTOM
 10
148.939783
 20
105.942689
 40
0.000000
 41
0.000000
 42
1.000000
  0
VERTEX
  8
PG_SILKSCREEN_BOTTOM
 10
147.060234
 20
105.942689
 40
0.000000
 41
0.000000
 42
1.000000
  0
SEQEND
  0
POLYLINE
  8
PG_SILKSCREEN_BOTTOM
 66
1
 70
1
 40
0.000000
 41
0.000000
 39
0.000000
  0
VERTEX
  8
PG_SILKSCREEN_BOTTOM
 10
150.965179
 20
105.942689
 40
0.000000
 41
0.000000
 42
1.000000
  0
VERTEX
  8
PG_SILKSCREEN_BOTTOM
 10
149.034830
 20
105.942689
 40
0.000000
 41
0.000000
 42
1.000000
  0
SEQEND
  0
CIRCLE
  8
PIN_BOTTOM
 10
134.600086
 20
102.942720
 40
0.799998
  0
CIRCLE
  8
PIN_BOTTOM
 10
132.099990
 20
102.942720
 40
0.799998
  0
CIRCLE
  8
PIN_BOTTOM
 10
130.099994
 20
102.942720
 40
0.799998
  0
CIRCLE
  8
PIN_BOTTOM
 10
127.599897
 20
102.942720
 40
0.799998
  0
CIRCLE
  8
PIN_BOTTOM
 10
124.550094
 20
102.942720
 40
1.299997
  0
CIRCLE
  8
PIN_BOTTOM
 10
137.649890
 20
102.942720
 40
1.299997
  0
CIRCLE
  8
PIN_BOTTOM
 10
134.600086
 20
105.942714
 40
0.799998
  0
CIRCLE
  8
PIN_BOTTOM
 10
132.099990
 20
105.942714
 40
0.799998
  0
CIRCLE
  8
PIN_BOTTOM
 10
130.099994
 20
105.942714
 40
0.799998
  0
CIRCLE
  8
PIN_BOTTOM
 10
127.599897
 20
105.942714
 40
0.799998
  0
CIRCLE
  8
PIN_BOTTOM
 10
124.550094
 20
108.742810
 40
1.299997
  0
CIRCLE
  8
PIN_BOTTOM
 10
137.649890
 20
108.742810
 40
1.299997
  0
POLYLINE
  8
PG_SILKSCREEN_BOTTOM
 66
1
 70
1
 40
0.000000
 41
0.000000
 39
0.000000
  0
VERTEX
  8
PG_SILKSCREEN_BOTTOM
 10
126.246280
 20
101.586817
 40
0.000000
 41
0.000000
 42
0.000000
  0
VERTEX
  8
PG_SILKSCREEN_BOTTOM
 10
126.246280
 20
102.409498
 40
0.000000
 41
0.000000
 42
0.153462
  0
VERTEX
  8
PG_SILKSCREEN_BOTTOM
 10
126.246280
 20
103.475815
 40
0.000000
 41
0.000000
 42
0.000000
  0
VERTEX
  8
PG_SILKSCREEN_BOTTOM
 10
126.246280
 20
107.241111
 40
0.000000
 41
0.000000
 42
0.000000
  0
VERTEX
  8
PG_SILKSCREEN_BOTTOM
 10
136.053779
 20
107.241111
 40
0.000000
 41
0.000000
 42
0.000000
  0
VERTEX
  8
PG_SILKSCREEN_BOTTOM
 10
136.053779
 20
103.726005
 40
0.000000
 41
0.000000
 42
0.232151
  0
VERTEX
  8
PG_SILKSCREEN_BOTTOM
 10
136.053779
 20
102.159410
 40
0.000000
 41
0.000000
 42
0.000000
  0
VERTEX
  8
PG_SILKSCREEN_BOTTOM
 10
136.053779
 20
101.586817
 40
0.000000
 41
0.000000
 42
0.000000
  0
SEQEND
  0
POLYLINE
  8
PG_SILKSCREEN_BOTTOM
 66
1
 70
1
 40
0.000000
 41
0.000000
 39
0.000000
  0
VERTEX
  8
PG_SILKSCREEN_BOTTOM
 10
135.539886
 20
105.942689
 40
0.000000
 41
0.000000
 42
1.000000
  0
VERTEX
  8
PG_SILKSCREEN_BOTTOM
 10
133.660337
 20
105.942689
 40
0.000000
 41
0.000000
 42
1.000000
  0
SEQEND
  0
POLYLINE
  8
PG_SILKSCREEN_BOTTOM
 66
1
 70
1
 40
0.000000
 41
0.000000
 39
0.000000
  0
VERTEX
  8
PG_SILKSCREEN_BOTTOM
 10
135.539886
 20
102.942695
 40
0.000000
 41
0.000000
 42
1.000000
  0
VERTEX
  8
PG_SILKSCREEN_BOTTOM
 10
133.660337
 20
102.942695
 40
0.000000
 41
0.000000
 42
1.000000
  0
SEQEND
  0
POLYLINE
  8
PG_SILKSCREEN_BOTTOM
 66
1
 70
1
 40
0.000000
 41
0.000000
 39
0.000000
  0
VERTEX
  8
PG_SILKSCREEN_BOTTOM
 10
133.039764
 20
102.942695
 40
0.000000
 41
0.000000
 42
1.000000
  0
VERTEX
  8
PG_SILKSCREEN_BOTTOM
 10
131.160215
 20
102.942695
 40
0.000000
 41
0.000000
 42
1.000000
  0
SEQEND
  0
POLYLINE
  8
PG_SILKSCREEN_BOTTOM
 66
1
 70
1
 40
0.000000
 41
0.000000
 39
0.000000
  0
VERTEX
  8
PG_SILKSCREEN_BOTTOM
 10
131.039768
 20
102.942695
 40
0.000000
 41
0.000000
 42
1.000000
  0
VERTEX
  8
PG_SILKSCREEN_BOTTOM
 10
129.160219
 20
102.942695
 40
0.000000
 41
0.000000
 42
1.000000
  0
SEQEND
  0
POLYLINE
  8
PG_SILKSCREEN_BOTTOM
 66
1
 70
1
 40
0.000000
 41
0.000000
 39
0.000000
  0
VERTEX
  8
PG_SILKSCREEN_BOTTOM
 10
128.539646
 20
102.942695
 40
0.000000
 41
0.000000
 42
1.000000
  0
VERTEX
  8
PG_SILKSCREEN_BOTTOM
 10
126.660097
 20
102.942695
 40
0.000000
 41
0.000000
 42
1.000000
  0
SEQEND
  0
POLYLINE
  8
PG_SILKSCREEN_BOTTOM
 66
1
 70
1
 40
0.000000
 41
0.000000
 39
0.000000
  0
VERTEX
  8
PG_SILKSCREEN_BOTTOM
 10
128.539646
 20
105.942689
 40
0.000000
 41
0.000000
 42
1.000000
  0
VERTEX
  8
PG_SILKSCREEN_BOTTOM
 10
126.660097
 20
105.942689
 40
0.000000
 41
0.000000
 42
1.000000
  0
SEQEND
  0
POLYLINE
  8
PG_SILKSCREEN_BOTTOM
 66
1
 70
1
 40
0.000000
 41
0.000000
 39
0.000000
  0
VERTEX
  8
PG_SILKSCREEN_BOTTOM
 10
131.039768
 20
105.942689
 40
0.000000
 41
0.000000
 42
1.000000
  0
VERTEX
  8
PG_SILKSCREEN_BOTTOM
 10
129.160219
 20
105.942689
 40
0.000000
 41
0.000000
 42
1.000000
  0
SEQEND
  0
POLYLINE
  8
PG_SILKSCREEN_BOTTOM
 66
1
 70
1
 40
0.000000
 41
0.000000
 39
0.000000
  0
VERTEX
  8
PG_SILKSCREEN_BOTTOM
 10
133.065164
 20
105.942689
 40
0.000000
 41
0.000000
 42
1.000000
  0
VERTEX
  8
PG_SILKSCREEN_BOTTOM
 10
131.134815
 20
105.942689
 40
0.000000
 41
0.000000
 42
1.000000
  0
SEQEND
  0
POLYLINE
  8
PIN_BOTTOM
 66
1
 70
1
 40
0.000000
 41
0.000000
 39
0.000000
  0
VERTEX
  8
PIN_BOTTOM
 10
12.233504
 20
81.534508
 40
0.000000
 41
0.000000
 42
0.000000
  0
VERTEX
  8
PIN_BOTTOM
 10
10.582504
 20
81.534508
 40
0.000000
 41
0.000000
 42
0.000000
  0
VERTEX
  8
PIN_BOTTOM
 10
10.582504
 20
83.185508
 40
0.000000
 41
0.000000
 42
0.000000
  0
VERTEX
  8
PIN_BOTTOM
 10
12.233504
 20
83.185508
 40
0.000000
 41
0.000000
 42
0.000000
  0
SEQEND
  0
CIRCLE
  8
PIN_BOTTOM
 10
11.408004
 20
85.129903
 40
0.825500
  0
CIRCLE
  8
PIN_BOTTOM
 10
11.408004
 20
87.900002
 40
0.825500
  0
CIRCLE
  8
PIN_BOTTOM
 10
11.408004
 20
90.670101
 40
0.825500
  0
CIRCLE
  8
PIN_BOTTOM
 10
11.408004
 20
93.439996
 40
0.825500
  0
CIRCLE
  8
PIN_BOTTOM
 10
8.568004
 20
83.745095
 40
0.825500
  0
CIRCLE
  8
PIN_BOTTOM
 10
8.568004
 20
86.514915
 40
0.825500
  0
CIRCLE
  8
PIN_BOTTOM
 10
8.568004
 20
89.285089
 40
0.825500
  0
CIRCLE
  8
PIN_BOTTOM
 10
8.568004
 20
92.054909
 40
0.825500
  0
POLYLINE
  8
PIN_BOTTOM
 66
1
 70
1
 40
0.000000
 41
0.000000
 39
0.000000
  0
VERTEX
  8
PIN_BOTTOM
 10
11.257915
 20
76.522605
 40
0.000000
 41
0.000000
 42
0.000000
  0
VERTEX
  8
PIN_BOTTOM
 10
11.257915
 20
74.287405
 40
0.000000
 41
0.000000
 42
-1.000000
  0
VERTEX
  8
PIN_BOTTOM
 10
8.717915
 20
74.287405
 40
0.000000
 41
0.000000
 42
0.000000
  0
VERTEX
  8
PIN_BOTTOM
 10
8.717915
 20
76.522605
 40
0.000000
 41
0.000000
 42
-1.000000
  0
SEQEND
  0
POLYLINE
  8
PIN_BOTTOM
 66
1
 70
1
 40
0.000000
 41
0.000000
 39
0.000000
  0
VERTEX
  8
PIN_BOTTOM
 10
11.258093
 20
101.512599
 40
0.000000
 41
0.000000
 42
0.000000
  0
VERTEX
  8
PIN_BOTTOM
 10
11.258093
 20
99.277399
 40
0.000000
 41
0.000000
 42
-1.000000
  0
VERTEX
  8
PIN_BOTTOM
 10
8.718093
 20
99.277399
 40
0.000000
 41
0.000000
 42
0.000000
  0
VERTEX
  8
PIN_BOTTOM
 10
8.718093
 20
101.512599
 40
0.000000
 41
0.000000
 42
-1.000000
  0
SEQEND
  0
POLYLINE
  8
PG_SILKSCREEN_BOTTOM
 66
1
 70
1
 40
0.000000
 41
0.000000
 39
0.000000
  0
VERTEX
  8
PG_SILKSCREEN_BOTTOM
 10
12.808001
 20
80.899991
 40
0.000000
 41
0.000000
 42
0.000000
  0
VERTEX
  8
PG_SILKSCREEN_BOTTOM
 10
7.208012
 20
80.899991
 40
0.000000
 41
0.000000
 42
0.000000
  0
VERTEX
  8
PG_SILKSCREEN_BOTTOM
 10
7.208012
 20
94.900013
 40
0.000000
 41
0.000000
 42
0.000000
  0
VERTEX
  8
PG_SILKSCREEN_BOTTOM
 10
12.808001
 20
94.900013
 40
0.000000
 41
0.000000
 42
0.000000
  0
SEQEND
  0
POLYLINE
  8
PG_SILKSCREEN_BOTTOM
 66
1
 70
1
 40
0.000000
 41
0.000000
 39
0.000000
  0
VERTEX
  8
PG_SILKSCREEN_BOTTOM
 10
12.308002
 20
83.300011
 40
0.000000
 41
0.000000
 42
0.000000
  0
VERTEX
  8
PG_SILKSCREEN_BOTTOM
 10
12.308002
 20
81.399990
 40
0.000000
 41
0.000000
 42
0.000000
  0
VERTEX
  8
PG_SILKSCREEN_BOTTOM
 10
10.508005
 20
81.399990
 40
0.000000
 41
0.000000
 42
0.000000
  0
VERTEX
  8
PG_SILKSCREEN_BOTTOM
 10
10.508005
 20
83.300011
 40
0.000000
 41
0.000000
 42
0.000000
  0
SEQEND
  0
POLYLINE
  8
PG_SILKSCREEN_BOTTOM
 66
1
 70
1
 40
0.000000
 41
0.000000
 39
0.000000
  0
VERTEX
  8
PG_SILKSCREEN_BOTTOM
 10
12.408002
 20
93.439996
 40
0.000000
 41
0.000000
 42
1.000000
  0
VERTEX
  8
PG_SILKSCREEN_BOTTOM
 10
10.408006
 20
93.440008
 40
0.000000
 41
0.000000
 42
1.000000
  0
SEQEND
  0
POLYLINE
  8
PG_SILKSCREEN_BOTTOM
 66
1
 70
1
 40
0.000000
 41
0.000000
 39
0.000000
  0
VERTEX
  8
PG_SILKSCREEN_BOTTOM
 10
9.568002
 20
92.054909
 40
0.000000
 41
0.000000
 42
1.000000
  0
VERTEX
  8
PG_SILKSCREEN_BOTTOM
 10
7.568005
 20
92.054895
 40
0.000000
 41
0.000000
 42
1.000000
  0
SEQEND
  0
POLYLINE
  8
PG_SILKSCREEN_BOTTOM
 66
1
 70
1
 40
0.000000
 41
0.000000
 39
0.000000
  0
VERTEX
  8
PG_SILKSCREEN_BOTTOM
 10
12.408002
 20
90.670101
 40
0.000000
 41
0.000000
 42
1.000000
  0
VERTEX
  8
PG_SILKSCREEN_BOTTOM
 10
10.408006
 20
90.670103
 40
0.000000
 41
0.000000
 42
1.000000
  0
SEQEND
  0
POLYLINE
  8
PG_SILKSCREEN_BOTTOM
 66
1
 70
1
 40
0.000000
 41
0.000000
 39
0.000000
  0
VERTEX
  8
PG_SILKSCREEN_BOTTOM
 10
9.568002
 20
89.285089
 40
0.000000
 41
0.000000
 42
1.000000
  0
VERTEX
  8
PG_SILKSCREEN_BOTTOM
 10
7.568005
 20
89.285115
 40
0.000000
 41
0.000000
 42
1.000000
  0
SEQEND
  0
POLYLINE
  8
PG_SILKSCREEN_BOTTOM
 66
1
 70
1
 40
0.000000
 41
0.000000
 39
0.000000
  0
VERTEX
  8
PG_SILKSCREEN_BOTTOM
 10
12.408002
 20
87.900002
 40
0.000000
 41
0.000000
 42
1.000000
  0
VERTEX
  8
PG_SILKSCREEN_BOTTOM
 10
10.408006
 20
87.900002
 40
0.000000
 41
0.000000
 42
1.000000
  0
SEQEND
  0
POLYLINE
  8
PG_SILKSCREEN_BOTTOM
 66
1
 70
1
 40
0.000000
 41
0.000000
 39
0.000000
  0
VERTEX
  8
PG_SILKSCREEN_BOTTOM
 10
9.568002
 20
86.514915
 40
0.000000
 41
0.000000
 42
1.000000
  0
VERTEX
  8
PG_SILKSCREEN_BOTTOM
 10
7.568005
 20
86.514889
 40
0.000000
 41
0.000000
 42
1.000000
  0
SEQEND
  0
POLYLINE
  8
PG_SILKSCREEN_BOTTOM
 66
1
 70
1
 40
0.000000
 41
0.000000
 39
0.000000
  0
VERTEX
  8
PG_SILKSCREEN_BOTTOM
 10
12.408002
 20
85.129903
 40
0.000000
 41
0.000000
 42
1.000000
  0
VERTEX
  8
PG_SILKSCREEN_BOTTOM
 10
10.408006
 20
85.129901
 40
0.000000
 41
0.000000
 42
1.000000
  0
SEQEND
  0
POLYLINE
  8
PG_SILKSCREEN_BOTTOM
 66
1
 70
1
 40
0.000000
 41
0.000000
 39
0.000000
  0
VERTEX
  8
PG_SILKSCREEN_BOTTOM
 10
9.568002
 20
83.745095
 40
0.000000
 41
0.000000
 42
1.000000
  0
VERTEX
  8
PG_SILKSCREEN_BOTTOM
 10
7.568005
 20
83.745109
 40
0.000000
 41
0.000000
 42
1.000000
  0
SEQEND
  0
POLYLINE
  8
PIN_BOTTOM
 66
1
 70
1
 40
0.000000
 41
0.000000
 39
0.000000
  0
VERTEX
  8
PIN_BOTTOM
 10
35.621493
 20
105.950512
 40
0.000000
 41
0.000000
 42
0.000000
  0
VERTEX
  8
PIN_BOTTOM
 10
35.621493
 20
107.347512
 40
0.000000
 41
0.000000
 42
0.000000
  0
VERTEX
  8
PIN_BOTTOM
 10
37.018493
 20
107.347512
 40
0.000000
 41
0.000000
 42
0.000000
  0
VERTEX
  8
PIN_BOTTOM
 10
37.018493
 20
105.950512
 40
0.000000
 41
0.000000
 42
0.000000
  0
SEQEND
  0
CIRCLE
  8
PIN_BOTTOM
 10
36.319993
 20
109.189012
 40
0.698500
  0
CIRCLE
  8
PIN_BOTTOM
 10
38.859993
 20
106.649012
 40
0.698500
  0
CIRCLE
  8
PIN_BOTTOM
 10
38.859993
 20
109.189012
 40
0.698500
  0
CIRCLE
  8
PIN_BOTTOM
 10
41.399993
 20
106.649012
 40
0.698500
  0
CIRCLE
  8
PIN_BOTTOM
 10
41.399993
 20
109.189012
 40
0.698500
  0
CIRCLE
  8
PIN_BOTTOM
 10
43.939993
 20
106.649012
 40
0.698500
  0
CIRCLE
  8
PIN_BOTTOM
 10
43.939993
 20
109.189012
 40
0.698500
  0
CIRCLE
  8
PIN_BOTTOM
 10
46.479993
 20
106.649012
 40
0.698500
  0
CIRCLE
  8
PIN_BOTTOM
 10
46.479993
 20
109.189012
 40
0.698500
  0
POLYLINE
  8
PIN_BOTTOM
 66
1
 70
1
 40
0.000000
 41
0.000000
 39
0.000000
  0
VERTEX
  8
PIN_BOTTOM
 10
173.629752
 20
90.211504
 40
0.000000
 41
0.000000
 42
0.000000
  0
VERTEX
  8
PIN_BOTTOM
 10
173.629752
 20
91.411501
 40
0.000000
 41
0.000000
 42
-1.000000
  0
VERTEX
  8
PIN_BOTTOM
 10
175.029749
 20
91.411501
 40
0.000000
 41
0.000000
 42
0.000000
  0
VERTEX
  8
PIN_BOTTOM
 10
175.029749
 20
90.211504
 40
0.000000
 41
0.000000
 42
-1.000000
  0
SEQEND
  0
POLYLINE
  8
PIN_BOTTOM
 66
1
 70
1
 40
0.000000
 41
0.000000
 39
0.000000
  0
VERTEX
  8
PIN_BOTTOM
 10
167.529662
 20
90.211504
 40
0.000000
 41
0.000000
 42
0.000000
  0
VERTEX
  8
PIN_BOTTOM
 10
167.529662
 20
91.411501
 40
0.000000
 41
0.000000
 42
-1.000000
  0
VERTEX
  8
PIN_BOTTOM
 10
168.929660
 20
91.411501
 40
0.000000
 41
0.000000
 42
0.000000
  0
VERTEX
  8
PIN_BOTTOM
 10
168.929660
 20
90.211504
 40
0.000000
 41
0.000000
 42
-1.000000
  0
SEQEND
  0
POLYLINE
  8
PIN_BOTTOM
 66
1
 70
1
 40
0.000000
 41
0.000000
 39
0.000000
  0
VERTEX
  8
PIN_BOTTOM
 10
165.729768
 20
88.211508
 40
0.000000
 41
0.000000
 42
0.000000
  0
VERTEX
  8
PIN_BOTTOM
 10
165.729768
 20
89.411505
 40
0.000000
 41
0.000000
 42
-1.000000
  0
VERTEX
  8
PIN_BOTTOM
 10
167.129765
 20
89.411505
 40
0.000000
 41
0.000000
 42
0.000000
  0
VERTEX
  8
PIN_BOTTOM
 10
167.129765
 20
88.211508
 40
0.000000
 41
0.000000
 42
-1.000000
  0
SEQEND
  0
POLYLINE
  8
PIN_BOTTOM
 66
1
 70
1
 40
0.000000
 41
0.000000
 39
0.000000
  0
VERTEX
  8
PIN_BOTTOM
 10
171.229655
 20
88.211508
 40
0.000000
 41
0.000000
 42
0.000000
  0
VERTEX
  8
PIN_BOTTOM
 10
171.229655
 20
89.411505
 40
0.000000
 41
0.000000
 42
-1.000000
  0
VERTEX
  8
PIN_BOTTOM
 10
172.629652
 20
89.411505
 40
0.000000
 41
0.000000
 42
0.000000
  0
VERTEX
  8
PIN_BOTTOM
 10
172.629652
 20
88.211508
 40
0.000000
 41
0.000000
 42
-1.000000
  0
SEQEND
  0
POLYLINE
  8
PIN_BOTTOM
 66
1
 70
1
 40
0.000000
 41
0.000000
 39
0.000000
  0
VERTEX
  8
PIN_BOTTOM
 10
161.629750
 20
90.211504
 40
0.000000
 41
0.000000
 42
0.000000
  0
VERTEX
  8
PIN_BOTTOM
 10
161.629750
 20
91.411501
 40
0.000000
 41
0.000000
 42
-1.000000
  0
VERTEX
  8
PIN_BOTTOM
 10
163.029748
 20
91.411501
 40
0.000000
 41
0.000000
 42
0.000000
  0
VERTEX
  8
PIN_BOTTOM
 10
163.029748
 20
90.211504
 40
0.000000
 41
0.000000
 42
-1.000000
  0
SEQEND
  0
POLYLINE
  8
PIN_BOTTOM
 66
1
 70
1
 40
0.000000
 41
0.000000
 39
0.000000
  0
VERTEX
  8
PIN_BOTTOM
 10
173.629904
 20
99.033686
 40
0.000000
 41
0.000000
 42
0.000000
  0
VERTEX
  8
PIN_BOTTOM
 10
173.629904
 20
100.233683
 40
0.000000
 41
0.000000
 42
-1.000000
  0
VERTEX
  8
PIN_BOTTOM
 10
175.029901
 20
100.233683
 40
0.000000
 41
0.000000
 42
0.000000
  0
VERTEX
  8
PIN_BOTTOM
 10
175.029901
 20
99.033686
 40
0.000000
 41
0.000000
 42
-1.000000
  0
SEQEND
  0
POLYLINE
  8
PIN_BOTTOM
 66
1
 70
1
 40
0.000000
 41
0.000000
 39
0.000000
  0
VERTEX
  8
PIN_BOTTOM
 10
167.529815
 20
99.033686
 40
0.000000
 41
0.000000
 42
0.000000
  0
VERTEX
  8
PIN_BOTTOM
 10
167.529815
 20
100.233683
 40
0.000000
 41
0.000000
 42
-1.000000
  0
VERTEX
  8
PIN_BOTTOM
 10
168.929812
 20
100.233683
 40
0.000000
 41
0.000000
 42
0.000000
  0
VERTEX
  8
PIN_BOTTOM
 10
168.929812
 20
99.033686
 40
0.000000
 41
0.000000
 42
-1.000000
  0
SEQEND
  0
POLYLINE
  8
PIN_BOTTOM
 66
1
 70
1
 40
0.000000
 41
0.000000
 39
0.000000
  0
VERTEX
  8
PIN_BOTTOM
 10
165.729920
 20
97.033690
 40
0.000000
 41
0.000000
 42
0.000000
  0
VERTEX
  8
PIN_BOTTOM
 10
165.729920
 20
98.233687
 40
0.000000
 41
0.000000
 42
-1.000000
  0
VERTEX
  8
PIN_BOTTOM
 10
167.129917
 20
98.233687
 40
0.000000
 41
0.000000
 42
0.000000
  0
VERTEX
  8
PIN_BOTTOM
 10
167.129917
 20
97.033690
 40
0.000000
 41
0.000000
 42
-1.000000
  0
SEQEND
  0
POLYLINE
  8
PIN_BOTTOM
 66
1
 70
1
 40
0.000000
 41
0.000000
 39
0.000000
  0
VERTEX
  8
PIN_BOTTOM
 10
171.229807
 20
97.033690
 40
0.000000
 41
0.000000
 42
0.000000
  0
VERTEX
  8
PIN_BOTTOM
 10
171.229807
 20
98.233687
 40
0.000000
 41
0.000000
 42
-1.000000
  0
VERTEX
  8
PIN_BOTTOM
 10
172.629805
 20
98.233687
 40
0.000000
 41
0.000000
 42
0.000000
  0
VERTEX
  8
PIN_BOTTOM
 10
172.629805
 20
97.033690
 40
0.000000
 41
0.000000
 42
-1.000000
  0
SEQEND
  0
POLYLINE
  8
PIN_BOTTOM
 66
1
 70
1
 40
0.000000
 41
0.000000
 39
0.000000
  0
VERTEX
  8
PIN_BOTTOM
 10
161.629903
 20
99.033686
 40
0.000000
 41
0.000000
 42
0.000000
  0
VERTEX
  8
PIN_BOTTOM
 10
161.629903
 20
100.233683
 40
0.000000
 41
0.000000
 42
-1.000000
  0
VERTEX
  8
PIN_BOTTOM
 10
163.029900
 20
100.233683
 40
0.000000
 41
0.000000
 42
0.000000
  0
VERTEX
  8
PIN_BOTTOM
 10
163.029900
 20
99.033686
 40
0.000000
 41
0.000000
 42
-1.000000
  0
SEQEND
  0
CIRCLE
  8
PIN_BOTTOM
 10
172.198106
 20
69.285383
 40
0.549999
  0
CIRCLE
  8
PIN_BOTTOM
 10
172.198106
 20
71.285379
 40
0.549999
  0
CIRCLE
  8
PIN_BOTTOM
 10
172.198106
 20
73.285375
 40
0.549999
  0
POLYLINE
  8
PIN_BOTTOM
 66
1
 70
1
 40
0.000000
 41
0.000000
 39
0.000000
  0
VERTEX
  8
PIN_BOTTOM
 10
171.648107
 20
75.835370
 40
0.000000
 41
0.000000
 42
0.000000
  0
VERTEX
  8
PIN_BOTTOM
 10
172.748105
 20
75.835370
 40
0.000000
 41
0.000000
 42
0.000000
  0
VERTEX
  8
PIN_BOTTOM
 10
172.748105
 20
74.735372
 40
0.000000
 41
0.000000
 42
0.000000
  0
VERTEX
  8
PIN_BOTTOM
 10
171.648107
 20
74.735372
 40
0.000000
 41
0.000000
 42
0.000000
  0
SEQEND
  0
POLYLINE
  8
PG_SILKSCREEN_BOTTOM
 66
1
 70
0
 40
0.000000
 41
0.000000
 39
0.000000
  0
VERTEX
  8
PG_SILKSCREEN_BOTTOM
 10
171.298108
 20
75.885370
 40
0.499999
 41
0.499999
 42
0.000000
  0
VERTEX
  8
PG_SILKSCREEN_BOTTOM
 10
171.298108
 20
68.385385
 40
0.499999
 41
0.499999
 42
0.000000
  0
VERTEX
  8
PG_SILKSCREEN_BOTTOM
 10
173.098104
 20
68.385385
 40
0.499999
 41
0.499999
 42
0.000000
  0
VERTEX
  8
PG_SILKSCREEN_BOTTOM
 10
173.098104
 20
76.185370
 40
0.499999
 41
0.499999
 42
0.000000
  0
VERTEX
  8
PG_SILKSCREEN_BOTTOM
 10
171.298108
 20
76.185370
 40
0.499999
 41
0.499999
 42
0.000000
  0
VERTEX
  8
PG_SILKSCREEN_BOTTOM
 10
171.298108
 20
75.885370
 40
0.499999
 41
0.499999
 42
0.000000
  0
SEQEND
  0
POLYLINE
  8
PG_SILKSCREEN_BOTTOM
 66
1
 70
0
 40
0.000000
 41
0.000000
 39
0.000000
  0
VERTEX
  8
PG_SILKSCREEN_BOTTOM
 10
173.098104
 20
74.285373
 40
0.499999
 41
0.499999
 42
0.000000
  0
VERTEX
  8
PG_SILKSCREEN_BOTTOM
 10
171.298108
 20
74.285373
 40
0.499999
 41
0.499999
 42
0.000000
  0
SEQEND
  0
POLYLINE
  8
PG_SILKSCREEN_BOTTOM
 66
1
 70
0
 40
0.000000
 41
0.000000
 39
0.000000
  0
VERTEX
  8
PG_SILKSCREEN_BOTTOM
 10
173.098104
 20
72.285377
 40
0.499999
 41
0.499999
 42
0.000000
  0
VERTEX
  8
PG_SILKSCREEN_BOTTOM
 10
171.298108
 20
72.285377
 40
0.499999
 41
0.499999
 42
0.000000
  0
SEQEND
  0
POLYLINE
  8
PG_SILKSCREEN_BOTTOM
 66
1
 70
0
 40
0.000000
 41
0.000000
 39
0.000000
  0
VERTEX
  8
PG_SILKSCREEN_BOTTOM
 10
173.098104
 20
70.285381
 40
0.499999
 41
0.499999
 42
0.000000
  0
VERTEX
  8
PG_SILKSCREEN_BOTTOM
 10
171.298108
 20
70.285381
 40
0.499999
 41
0.499999
 42
0.000000
  0
SEQEND
  0
CIRCLE
  8
PIN_BOTTOM
 10
44.799910
 20
7.999882
 40
0.800100
  0
CIRCLE
  8
PIN_BOTTOM
 10
51.599998
 20
7.999882
 40
0.800100
  0
CIRCLE
  8
PIN_BOTTOM
 10
44.799910
 20
3.399942
 40
0.800100
  0
CIRCLE
  8
PIN_BOTTOM
 10
51.599998
 20
3.399942
 40
0.800100
  0
CIRCLE
  8
PIN_BOTTOM
 10
35.909910
 20
7.999882
 40
0.800100
  0
CIRCLE
  8
PIN_BOTTOM
 10
42.709998
 20
7.999882
 40
0.800100
  0
CIRCLE
  8
PIN_BOTTOM
 10
35.909910
 20
3.399942
 40
0.800100
  0
CIRCLE
  8
PIN_BOTTOM
 10
42.709998
 20
3.399942
 40
0.800100
  0
CIRCLE
  8
PIN_BOTTOM
 10
27.019910
 20
7.999882
 40
0.800100
  0
CIRCLE
  8
PIN_BOTTOM
 10
33.819998
 20
7.999882
 40
0.800100
  0
CIRCLE
  8
PIN_BOTTOM
 10
27.019910
 20
3.399942
 40
0.800100
  0
CIRCLE
  8
PIN_BOTTOM
 10
33.819998
 20
3.399942
 40
0.800100
  0
CIRCLE
  8
PIN_BOTTOM
 10
18.099964
 20
7.999984
 40
0.800100
  0
CIRCLE
  8
PIN_BOTTOM
 10
24.900052
 20
7.999984
 40
0.800100
  0
CIRCLE
  8
PIN_BOTTOM
 10
18.099964
 20
3.400044
 40
0.800100
  0
CIRCLE
  8
PIN_BOTTOM
 10
24.900052
 20
3.400044
 40
0.800100
  0
CIRCLE
  8
PIN_BOTTOM
 10
135.144129
 20
7.999882
 40
0.800100
  0
CIRCLE
  8
PIN_BOTTOM
 10
141.944217
 20
7.999882
 40
0.800100
  0
CIRCLE
  8
PIN_BOTTOM
 10
135.144129
 20
3.399942
 40
0.800100
  0
CIRCLE
  8
PIN_BOTTOM
 10
141.944217
 20
3.399942
 40
0.800100
  0
CIRCLE
  8
PIN_BOTTOM
 10
125.444123
 20
7.999933
 40
0.800100
  0
CIRCLE
  8
PIN_BOTTOM
 10
132.244211
 20
7.999933
 40
0.800100
  0
CIRCLE
  8
PIN_BOTTOM
 10
125.444123
 20
3.399993
 40
0.800100
  0
CIRCLE
  8
PIN_BOTTOM
 10
132.244211
 20
3.399993
 40
0.800100
  0
CIRCLE
  8
PIN_BOTTOM
 10
16.000044
 20
3.400019
 40
0.800100
  0
CIRCLE
  8
PIN_BOTTOM
 10
9.199956
 20
3.400019
 40
0.800100
  0
CIRCLE
  8
PIN_BOTTOM
 10
16.000044
 20
7.999959
 40
0.800100
  0
CIRCLE
  8
PIN_BOTTOM
 10
9.199956
 20
7.999959
 40
0.800100
  0
CIRCLE
  8
PIN_BOTTOM
 10
11.897309
 20
16.130422
 40
1.149998
  0
CIRCLE
  8
PIN_BOTTOM
 10
11.897309
 20
20.830438
 40
1.149998
  0
POLYLINE
  8
PIN_BOTTOM
 66
1
 70
1
 40
0.000000
 41
0.000000
 39
0.000000
  0
VERTEX
  8
PIN_BOTTOM
 10
10.747312
 20
26.680452
 40
0.000000
 41
0.000000
 42
0.000000
  0
VERTEX
  8
PIN_BOTTOM
 10
13.047307
 20
26.680452
 40
0.000000
 41
0.000000
 42
0.000000
  0
VERTEX
  8
PIN_BOTTOM
 10
13.047307
 20
24.380457
 40
0.000000
 41
0.000000
 42
0.000000
  0
VERTEX
  8
PIN_BOTTOM
 10
10.747312
 20
24.380457
 40
0.000000
 41
0.000000
 42
0.000000
  0
SEQEND
  0
POLYLINE
  8
PIN_BOTTOM
 66
1
 70
1
 40
0.000000
 41
0.000000
 39
0.000000
  0
VERTEX
  8
PIN_BOTTOM
 10
152.128322
 20
89.694309
 40
0.000000
 41
0.000000
 42
0.000000
  0
VERTEX
  8
PIN_BOTTOM
 10
150.604322
 20
89.694309
 40
0.000000
 41
0.000000
 42
0.000000
  0
VERTEX
  8
PIN_BOTTOM
 10
150.604322
 20
91.218309
 40
0.000000
 41
0.000000
 42
0.000000
  0
VERTEX
  8
PIN_BOTTOM
 10
152.128322
 20
91.218309
 40
0.000000
 41
0.000000
 42
0.000000
  0
SEQEND
  0
CIRCLE
  8
PIN_BOTTOM
 10
153.906322
 20
90.456309
 40
0.762000
  0
POLYLINE
  8
PIN_BOTTOM
 66
1
 70
1
 40
0.000000
 41
0.000000
 39
0.000000
  0
VERTEX
  8
PIN_BOTTOM
 10
20.429322
 20
31.782309
 40
0.000000
 41
0.000000
 42
0.000000
  0
VERTEX
  8
PIN_BOTTOM
 10
21.953322
 20
31.782309
 40
0.000000
 41
0.000000
 42
0.000000
  0
VERTEX
  8
PIN_BOTTOM
 10
21.953322
 20
30.258309
 40
0.000000
 41
0.000000
 42
0.000000
  0
VERTEX
  8
PIN_BOTTOM
 10
20.429322
 20
30.258309
 40
0.000000
 41
0.000000
 42
0.000000
  0
SEQEND
  0
CIRCLE
  8
PIN_BOTTOM
 10
18.651322
 20
31.020309
 40
0.762000
  0
POLYLINE
  8
PIN_BOTTOM
 66
1
 70
1
 40
0.000000
 41
0.000000
 39
0.000000
  0
VERTEX
  8
PIN_BOTTOM
 10
152.128322
 20
82.201309
 40
0.000000
 41
0.000000
 42
0.000000
  0
VERTEX
  8
PIN_BOTTOM
 10
150.604322
 20
82.201309
 40
0.000000
 41
0.000000
 42
0.000000
  0
VERTEX
  8
PIN_BOTTOM
 10
150.604322
 20
83.725309
 40
0.000000
 41
0.000000
 42
0.000000
  0
VERTEX
  8
PIN_BOTTOM
 10
152.128322
 20
83.725309
 40
0.000000
 41
0.000000
 42
0.000000
  0
SEQEND
  0
CIRCLE
  8
PIN_BOTTOM
 10
153.906322
 20
82.963309
 40
0.762000
  0
CIRCLE
  8
PIN_BOTTOM
 10
38.716204
 20
92.104362
 40
0.584200
  0
CIRCLE
  8
PIN_BOTTOM
 10
46.082204
 20
92.104362
 40
0.584200
  0
CIRCLE
  8
PIN_BOTTOM
 10
118.212565
 20
18.568289
 40
0.750062
  0
POLYLINE
  8
PIN_BOTTOM
 66
1
 70
1
 40
0.000000
 41
0.000000
 39
0.000000
  0
VERTEX
  8
PIN_BOTTOM
 10
116.422627
 20
19.318351
 40
0.000000
 41
0.000000
 42
0.000000
  0
VERTEX
  8
PIN_BOTTOM
 10
116.422627
 20
17.818227
 40
0.000000
 41
0.000000
 42
0.000000
  0
VERTEX
  8
PIN_BOTTOM
 10
114.922503
 20
17.818227
 40
0.000000
 41
0.000000
 42
0.000000
  0
VERTEX
  8
PIN_BOTTOM
 10
114.922503
 20
19.318351
 40
0.000000
 41
0.000000
 42
0.000000
  0
SEQEND
  0
POLYLINE
  8
PIN_BOTTOM
 66
1
 70
1
 40
0.000000
 41
0.000000
 39
0.000000
  0
VERTEX
  8
PIN_BOTTOM
 10
25.830809
 20
114.621208
 40
0.000000
 41
0.000000
 42
0.000000
  0
VERTEX
  8
PIN_BOTTOM
 10
25.830809
 20
116.621204
 40
0.000000
 41
0.000000
 42
0.000000
  0
VERTEX
  8
PIN_BOTTOM
 10
27.830805
 20
116.621204
 40
0.000000
 41
0.000000
 42
0.000000
  0
VERTEX
  8
PIN_BOTTOM
 10
27.830805
 20
114.621208
 40
0.000000
 41
0.000000
 42
0.000000
  0
SEQEND
  0
CIRCLE
  8
PIN_BOTTOM
 10
21.750807
 20
115.621206
 40
0.999998
  0
POLYLINE
  8
PIN_BOTTOM
 66
1
 70
1
 40
0.000000
 41
0.000000
 39
0.000000
  0
VERTEX
  8
PIN_BOTTOM
 10
15.447010
 20
114.621208
 40
0.000000
 41
0.000000
 42
0.000000
  0
VERTEX
  8
PIN_BOTTOM
 10
15.447010
 20
116.621204
 40
0.000000
 41
0.000000
 42
0.000000
  0
VERTEX
  8
PIN_BOTTOM
 10
17.447006
 20
116.621204
 40
0.000000
 41
0.000000
 42
0.000000
  0
VERTEX
  8
PIN_BOTTOM
 10
17.447006
 20
114.621208
 40
0.000000
 41
0.000000
 42
0.000000
  0
SEQEND
  0
CIRCLE
  8
PIN_BOTTOM
 10
11.367008
 20
115.621206
 40
0.999998
  0
CIRCLE
  8
PIN_BOTTOM
 10
172.253123
 20
80.679188
 40
0.750062
  0
CIRCLE
  8
PIN_BOTTOM
 10
172.253123
 20
82.679184
 40
0.750062
  0
POLYLINE
  8
PIN_BOTTOM
 66
1
 70
1
 40
0.000000
 41
0.000000
 39
0.000000
  0
VERTEX
  8
PIN_BOTTOM
 10
3.051988
 20
42.231513
 40
0.000000
 41
0.000000
 42
0.000000
  0
VERTEX
  8
PIN_BOTTOM
 10
3.051988
 20
44.031611
 40
0.000000
 41
0.000000
 42
0.000000
  0
VERTEX
  8
PIN_BOTTOM
 10
4.852086
 20
44.031611
 40
0.000000
 41
0.000000
 42
0.000000
  0
VERTEX
  8
PIN_BOTTOM
 10
4.852086
 20
42.231513
 40
0.000000
 41
0.000000
 42
0.000000
  0
SEQEND
  0
CIRCLE
  8
PIN_BOTTOM
 10
3.952037
 20
50.751562
 40
0.900049
  0
CIRCLE
  8
PIN_BOTTOM
 10
6.492037
 20
50.751562
 40
0.900049
  0
CIRCLE
  8
PIN_BOTTOM
 10
6.492037
 20
43.131562
 40
0.900049
  0
CIRCLE
  8
PIN_BOTTOM
 10
168.758133
 20
33.891042
 40
0.750062
  0
CIRCLE
  8
PIN_BOTTOM
 10
168.758133
 20
37.891034
 40
0.750062
  0
POLYLINE
  8
PIN_BOTTOM
 66
1
 70
1
 40
0.000000
 41
0.000000
 39
0.000000
  0
VERTEX
  8
PIN_BOTTOM
 10
15.406091
 20
35.955834
 40
0.000000
 41
0.000000
 42
0.000000
  0
VERTEX
  8
PIN_BOTTOM
 10
15.406091
 20
33.145832
 40
0.000000
 41
0.000000
 42
-1.000000
  0
VERTEX
  8
PIN_BOTTOM
 10
13.406095
 20
33.145832
 40
0.000000
 41
0.000000
 42
0.000000
  0
VERTEX
  8
PIN_BOTTOM
 10
13.406095
 20
35.955834
 40
0.000000
 41
0.000000
 42
-1.000000
  0
SEQEND
  0
POLYLINE
  8
PIN_BOTTOM
 66
1
 70
1
 40
0.000000
 41
0.000000
 39
0.000000
  0
VERTEX
  8
PIN_BOTTOM
 10
9.206103
 20
35.955834
 40
0.000000
 41
0.000000
 42
0.000000
  0
VERTEX
  8
PIN_BOTTOM
 10
9.206103
 20
33.145832
 40
0.000000
 41
0.000000
 42
-1.000000
  0
VERTEX
  8
PIN_BOTTOM
 10
7.206107
 20
33.145832
 40
0.000000
 41
0.000000
 42
0.000000
  0
VERTEX
  8
PIN_BOTTOM
 10
7.206107
 20
35.955834
 40
0.000000
 41
0.000000
 42
-1.000000
  0
SEQEND
  0
POLYLINE
  8
PIN_BOTTOM
 66
1
 70
1
 40
0.000000
 41
0.000000
 39
0.000000
  0
VERTEX
  8
PIN_BOTTOM
 10
10.001098
 20
30.850840
 40
0.000000
 41
0.000000
 42
0.000000
  0
VERTEX
  8
PIN_BOTTOM
 10
12.811100
 20
30.850840
 40
0.000000
 41
0.000000
 42
-1.000000
  0
VERTEX
  8
PIN_BOTTOM
 10
12.811100
 20
28.850844
 40
0.000000
 41
0.000000
 42
0.000000
  0
VERTEX
  8
PIN_BOTTOM
 10
10.001098
 20
28.850844
 40
0.000000
 41
0.000000
 42
-1.000000
  0
SEQEND
  0
CIRCLE
  8
PIN_BOTTOM
 10
18.651322
 20
104.299309
 40
0.750062
  0
POLYLINE
  8
PIN_BOTTOM
 66
1
 70
1
 40
0.000000
 41
0.000000
 39
0.000000
  0
VERTEX
  8
PIN_BOTTOM
 10
21.941384
 20
105.049371
 40
0.000000
 41
0.000000
 42
0.000000
  0
VERTEX
  8
PIN_BOTTOM
 10
21.941384
 20
103.549247
 40
0.000000
 41
0.000000
 42
0.000000
  0
VERTEX
  8
PIN_BOTTOM
 10
20.441260
 20
103.549247
 40
0.000000
 41
0.000000
 42
0.000000
  0
VERTEX
  8
PIN_BOTTOM
 10
20.441260
 20
105.049371
 40
0.000000
 41
0.000000
 42
0.000000
  0
SEQEND
  0
POLYLINE
  8
PG_SILKSCREEN_BOTTOM
 66
1
 70
0
 40
0.000000
 41
0.000000
 39
0.000000
  0
VERTEX
  8
PG_SILKSCREEN_BOTTOM
 10
19.921322
 20
104.899308
 40
0.599999
 41
0.599999
 42
0.000000
  0
VERTEX
  8
PG_SILKSCREEN_BOTTOM
 10
19.921322
 20
103.699310
 40
0.599999
 41
0.599999
 42
0.000000
  0
SEQEND
  0
CIRCLE
  8
PIN_BOTTOM
 10
26.017322
 20
104.299309
 40
0.750062
  0
POLYLINE
  8
PIN_BOTTOM
 66
1
 70
1
 40
0.000000
 41
0.000000
 39
0.000000
  0
VERTEX
  8
PIN_BOTTOM
 10
29.307384
 20
105.049371
 40
0.000000
 41
0.000000
 42
0.000000
  0
VERTEX
  8
PIN_BOTTOM
 10
29.307384
 20
103.549247
 40
0.000000
 41
0.000000
 42
0.000000
  0
VERTEX
  8
PIN_BOTTOM
 10
27.807260
 20
103.549247
 40
0.000000
 41
0.000000
 42
0.000000
  0
VERTEX
  8
PIN_BOTTOM
 10
27.807260
 20
105.049371
 40
0.000000
 41
0.000000
 42
0.000000
  0
SEQEND
  0
POLYLINE
  8
PG_SILKSCREEN_BOTTOM
 66
1
 70
0
 40
0.000000
 41
0.000000
 39
0.000000
  0
VERTEX
  8
PG_SILKSCREEN_BOTTOM
 10
27.287322
 20
104.899308
 40
0.599999
 41
0.599999
 42
0.000000
  0
VERTEX
  8
PG_SILKSCREEN_BOTTOM
 10
27.287322
 20
103.699310
 40
0.599999
 41
0.599999
 42
0.000000
  0
SEQEND
  0
POLYLINE
  8
PIN_BOTTOM
 66
1
 70
1
 40
0.000000
 41
0.000000
 39
0.000000
  0
VERTEX
  8
PIN_BOTTOM
 10
33.091323
 20
58.617307
 40
0.000000
 41
0.000000
 42
0.000000
  0
VERTEX
  8
PIN_BOTTOM
 10
34.691320
 20
58.617307
 40
0.000000
 41
0.000000
 42
0.000000
  0
VERTEX
  8
PIN_BOTTOM
 10
34.691320
 20
57.017310
 40
0.000000
 41
0.000000
 42
0.000000
  0
VERTEX
  8
PIN_BOTTOM
 10
33.091323
 20
57.017310
 40
0.000000
 41
0.000000
 42
0.000000
  0
SEQEND
  0
CIRCLE
  8
PIN_BOTTOM
 10
33.891322
 20
55.277309
 40
0.799998
  0
CIRCLE
  8
PIN_BOTTOM
 10
36.431322
 20
55.277309
 40
0.799998
  0
CIRCLE
  8
PIN_BOTTOM
 10
36.431322
 20
57.817309
 40
0.799998
  0
POLYLINE
  8
PG_SILKSCREEN_BOTTOM
 66
1
 70
0
 40
0.000000
 41
0.000000
 39
0.000000
  0
VERTEX
  8
PG_SILKSCREEN_BOTTOM
 10
35.161322
 20
58.447305
 40
0.499999
 41
0.499999
 42
0.000000
  0
VERTEX
  8
PG_SILKSCREEN_BOTTOM
 10
35.161322
 20
54.647313
 40
0.499999
 41
0.499999
 42
0.000000
  0
SEQEND
  0
POLYLINE
  8
PG_SILKSCREEN_BOTTOM
 66
1
 70
0
 40
0.000000
 41
0.000000
 39
0.000000
  0
VERTEX
  8
PG_SILKSCREEN_BOTTOM
 10
33.261325
 20
56.547309
 40
0.499999
 41
0.499999
 42
0.000000
  0
VERTEX
  8
PG_SILKSCREEN_BOTTOM
 10
37.061318
 20
56.547309
 40
0.499999
 41
0.499999
 42
0.000000
  0
SEQEND
  0
CIRCLE
  8
PIN_BOTTOM
 10
106.391989
 20
31.697066
 40
2.599995
  0
CIRCLE
  8
PIN_BOTTOM
 10
57.884085
 20
31.697066
 40
2.599995
  0
CIRCLE
  8
PIN_BOTTOM
 10
57.884085
 20
65.696998
 40
2.599995
  0
CIRCLE
  8
PIN_BOTTOM
 10
106.391989
 20
65.696998
 40
2.599995
  0
POLYLINE
  8
PIN_BOTTOM
 66
1
 70
1
 40
0.000000
 41
0.000000
 39
0.000000
  0
VERTEX
  8
PIN_BOTTOM
 10
175.070008
 20
41.302102
 40
0.000000
 41
0.000000
 42
0.000000
  0
VERTEX
  8
PIN_BOTTOM
 10
173.470011
 20
41.302102
 40
0.000000
 41
0.000000
 42
0.000000
  0
VERTEX
  8
PIN_BOTTOM
 10
173.470011
 20
42.902099
 40
0.000000
 41
0.000000
 42
0.000000
  0
VERTEX
  8
PIN_BOTTOM
 10
175.070008
 20
42.902099
 40
0.000000
 41
0.000000
 42
0.000000
  0
SEQEND
  0
CIRCLE
  8
PIN_BOTTOM
 10
174.270010
 20
44.642100
 40
0.799998
  0
CIRCLE
  8
PIN_BOTTOM
 10
171.730010
 20
44.642100
 40
0.799998
  0
CIRCLE
  8
PIN_BOTTOM
 10
171.730010
 20
42.102100
 40
0.799998
  0
CIRCLE
  8
PIN_BOTTOM
 10
174.270010
 20
47.182100
 40
0.799998
  0
CIRCLE
  8
PIN_BOTTOM
 10
171.730010
 20
47.182100
 40
0.799998
  0
CIRCLE
  8
PIN_BOTTOM
 10
174.270010
 20
49.722100
 40
0.799998
  0
CIRCLE
  8
PIN_BOTTOM
 10
171.730010
 20
49.722100
 40
0.799998
  0
CIRCLE
  8
PIN_BOTTOM
 10
174.270010
 20
52.262100
 40
0.799998
  0
CIRCLE
  8
PIN_BOTTOM
 10
171.730010
 20
52.262100
 40
0.799998
  0
CIRCLE
  8
PIN_BOTTOM
 10
174.270010
 20
54.802100
 40
0.799998
  0
CIRCLE
  8
PIN_BOTTOM
 10
171.730010
 20
54.802100
 40
0.799998
  0
CIRCLE
  8
PIN_BOTTOM
 10
174.270010
 20
57.342100
 40
0.799998
  0
CIRCLE
  8
PIN_BOTTOM
 10
171.730010
 20
57.342100
 40
0.799998
  0
CIRCLE
  8
PIN_BOTTOM
 10
174.270010
 20
59.882100
 40
0.799998
  0
CIRCLE
  8
PIN_BOTTOM
 10
171.730010
 20
59.882100
 40
0.799998
  0
CIRCLE
  8
PIN_BOTTOM
 10
174.270010
 20
62.422100
 40
0.799998
  0
CIRCLE
  8
PIN_BOTTOM
 10
171.730010
 20
62.422100
 40
0.799998
  0
CIRCLE
  8
PIN_BOTTOM
 10
174.270010
 20
64.962100
 40
0.799998
  0
CIRCLE
  8
PIN_BOTTOM
 10
171.730010
 20
64.962100
 40
0.799998
  0
POLYLINE
  8
PG_SILKSCREEN_BOTTOM
 66
1
 70
0
 40
0.000000
 41
0.000000
 39
0.000000
  0
VERTEX
  8
PG_SILKSCREEN_BOTTOM
 10
173.000010
 20
41.472104
 40
0.499999
 41
0.499999
 42
0.000000
  0
VERTEX
  8
PG_SILKSCREEN_BOTTOM
 10
173.000010
 20
65.592096
 40
0.499999
 41
0.499999
 42
0.000000
  0
SEQEND
  0
POLYLINE
  8
PG_SILKSCREEN_BOTTOM
 66
1
 70
0
 40
0.000000
 41
0.000000
 39
0.000000
  0
VERTEX
  8
PG_SILKSCREEN_BOTTOM
 10
174.900006
 20
43.372100
 40
0.499999
 41
0.499999
 42
0.000000
  0
VERTEX
  8
PG_SILKSCREEN_BOTTOM
 10
171.100013
 20
43.372100
 40
0.499999
 41
0.499999
 42
0.000000
  0
SEQEND
  0
POLYLINE
  8
PG_SILKSCREEN_BOTTOM
 66
1
 70
0
 40
0.000000
 41
0.000000
 39
0.000000
  0
VERTEX
  8
PG_SILKSCREEN_BOTTOM
 10
174.900006
 20
45.912100
 40
0.499999
 41
0.499999
 42
0.000000
  0
VERTEX
  8
PG_SILKSCREEN_BOTTOM
 10
171.100013
 20
45.912100
 40
0.499999
 41
0.499999
 42
0.000000
  0
SEQEND
  0
POLYLINE
  8
PG_SILKSCREEN_BOTTOM
 66
1
 70
0
 40
0.000000
 41
0.000000
 39
0.000000
  0
VERTEX
  8
PG_SILKSCREEN_BOTTOM
 10
174.900006
 20
48.452100
 40
0.499999
 41
0.499999
 42
0.000000
  0
VERTEX
  8
PG_SILKSCREEN_BOTTOM
 10
171.100013
 20
48.452100
 40
0.499999
 41
0.499999
 42
0.000000
  0
SEQEND
  0
POLYLINE
  8
PG_SILKSCREEN_BOTTOM
 66
1
 70
0
 40
0.000000
 41
0.000000
 39
0.000000
  0
VERTEX
  8
PG_SILKSCREEN_BOTTOM
 10
174.900006
 20
50.992100
 40
0.499999
 41
0.499999
 42
0.000000
  0
VERTEX
  8
PG_SILKSCREEN_BOTTOM
 10
171.100013
 20
50.992100
 40
0.499999
 41
0.499999
 42
0.000000
  0
SEQEND
  0
POLYLINE
  8
PG_SILKSCREEN_BOTTOM
 66
1
 70
0
 40
0.000000
 41
0.000000
 39
0.000000
  0
VERTEX
  8
PG_SILKSCREEN_BOTTOM
 10
174.900006
 20
53.532100
 40
0.499999
 41
0.499999
 42
0.000000
  0
VERTEX
  8
PG_SILKSCREEN_BOTTOM
 10
171.100013
 20
53.532100
 40
0.499999
 41
0.499999
 42
0.000000
  0
SEQEND
  0
POLYLINE
  8
PG_SILKSCREEN_BOTTOM
 66
1
 70
0
 40
0.000000
 41
0.000000
 39
0.000000
  0
VERTEX
  8
PG_SILKSCREEN_BOTTOM
 10
174.900006
 20
56.072100
 40
0.499999
 41
0.499999
 42
0.000000
  0
VERTEX
  8
PG_SILKSCREEN_BOTTOM
 10
171.100013
 20
56.072100
 40
0.499999
 41
0.499999
 42
0.000000
  0
SEQEND
  0
POLYLINE
  8
PG_SILKSCREEN_BOTTOM
 66
1
 70
0
 40
0.000000
 41
0.000000
 39
0.000000
  0
VERTEX
  8
PG_SILKSCREEN_BOTTOM
 10
174.900006
 20
58.612100
 40
0.499999
 41
0.499999
 42
0.000000
  0
VERTEX
  8
PG_SILKSCREEN_BOTTOM
 10
171.100013
 20
58.612100
 40
0.499999
 41
0.499999
 42
0.000000
  0
SEQEND
  0
POLYLINE
  8
PG_SILKSCREEN_BOTTOM
 66
1
 70
0
 40
0.000000
 41
0.000000
 39
0.000000
  0
VERTEX
  8
PG_SILKSCREEN_BOTTOM
 10
174.900006
 20
61.152100
 40
0.499999
 41
0.499999
 42
0.000000
  0
VERTEX
  8
PG_SILKSCREEN_BOTTOM
 10
171.100013
 20
61.152100
 40
0.499999
 41
0.499999
 42
0.000000
  0
SEQEND
  0
POLYLINE
  8
PG_SILKSCREEN_BOTTOM
 66
1
 70
0
 40
0.000000
 41
0.000000
 39
0.000000
  0
VERTEX
  8
PG_SILKSCREEN_BOTTOM
 10
174.900006
 20
63.692100
 40
0.499999
 41
0.499999
 42
0.000000
  0
VERTEX
  8
PG_SILKSCREEN_BOTTOM
 10
171.100013
 20
63.692100
 40
0.499999
 41
0.499999
 42
0.000000
  0
SEQEND
  0
CIRCLE
  8
PIN_BOTTOM
 10
171.507709
 20
4.472407
 40
3.099994
  0
CIRCLE
  8
PIN_BOTTOM
 10
119.647995
 20
3.650209
 40
3.099994
  0
CIRCLE
  8
PIN_BOTTOM
 10
56.452795
 20
3.650209
 40
3.099994
  0
CIRCLE
  8
PIN_BOTTOM
 10
171.507709
 20
115.472693
 40
3.099994
  0
CIRCLE
  8
PIN_BOTTOM
 10
119.647995
 20
115.850187
 40
3.099994
  0
CIRCLE
  8
PIN_BOTTOM
 10
56.452795
 20
115.850187
 40
3.099994
  0
CIRCLE
  8
PIN_BOTTOM
 10
4.507509
 20
4.472407
 40
3.099994
  0
CIRCLE
  8
PIN_BOTTOM
 10
127.671830
 20
19.253124
 40
3.099994
  0
CIRCLE
  8
PIN_BOTTOM
 10
17.702733
 20
44.379947
 40
3.099994
  0
CIRCLE
  8
PIN_BOTTOM
 10
156.727601
 20
63.570155
 40
3.099994
  0
CIRCLE
  8
PIN_BOTTOM
 10
60.062110
 20
92.277032
 40
3.099994
  0
CIRCLE
  8
PIN_BOTTOM
 10
4.507509
 20
115.472693
 40
3.099994
  0
POLYLINE
  8
PIN_BOTTOM
 66
1
 70
1
 40
0.000000
 41
0.000000
 39
0.000000
  0
VERTEX
  8
PIN_BOTTOM
 10
40.721305
 20
71.820303
 40
0.000000
 41
0.000000
 42
0.000000
  0
VERTEX
  8
PIN_BOTTOM
 10
42.321302
 20
71.820303
 40
0.000000
 41
0.000000
 42
0.000000
  0
VERTEX
  8
PIN_BOTTOM
 10
42.321302
 20
70.220307
 40
0.000000
 41
0.000000
 42
0.000000
  0
VERTEX
  8
PIN_BOTTOM
 10
40.721305
 20
70.220307
 40
0.000000
 41
0.000000
 42
0.000000
  0
SEQEND
  0
CIRCLE
  8
PIN_BOTTOM
 10
41.521304
 20
68.480305
 40
0.799998
  0
CIRCLE
  8
PIN_BOTTOM
 10
41.521304
 20
65.940305
 40
0.799998
  0
CIRCLE
  8
PIN_BOTTOM
 10
41.521304
 20
63.400305
 40
0.799998
  0
POLYLINE
  8
PG_SILKSCREEN_BOTTOM
 66
1
 70
0
 40
0.000000
 41
0.000000
 39
0.000000
  0
VERTEX
  8
PG_SILKSCREEN_BOTTOM
 10
42.121303
 20
69.750305
 40
0.499999
 41
0.499999
 42
0.000000
  0
VERTEX
  8
PG_SILKSCREEN_BOTTOM
 10
40.921305
 20
69.750305
 40
0.499999
 41
0.499999
 42
0.000000
  0
SEQEND
  0
POLYLINE
  8
PG_SILKSCREEN_BOTTOM
 66
1
 70
0
 40
0.000000
 41
0.000000
 39
0.000000
  0
VERTEX
  8
PG_SILKSCREEN_BOTTOM
 10
42.121303
 20
67.210305
 40
0.499999
 41
0.499999
 42
0.000000
  0
VERTEX
  8
PG_SILKSCREEN_BOTTOM
 10
40.921305
 20
67.210305
 40
0.499999
 41
0.499999
 42
0.000000
  0
SEQEND
  0
POLYLINE
  8
PG_SILKSCREEN_BOTTOM
 66
1
 70
0
 40
0.000000
 41
0.000000
 39
0.000000
  0
VERTEX
  8
PG_SILKSCREEN_BOTTOM
 10
42.121303
 20
64.670305
 40
0.499999
 41
0.499999
 42
0.000000
  0
VERTEX
  8
PG_SILKSCREEN_BOTTOM
 10
40.921305
 20
64.670305
 40
0.499999
 41
0.499999
 42
0.000000
  0
SEQEND
  0
POLYLINE
  8
PG_SILKSCREEN_BOTTOM
 66
1
 70
0
 40
0.000000
 41
0.000000
 39
0.000000
  0
VERTEX
  8
PG_SILKSCREEN_BOTTOM
 10
19.921322
 20
31.620308
 40
0.499999
 41
0.499999
 42
0.000000
  0
VERTEX
  8
PG_SILKSCREEN_BOTTOM
 10
19.921322
 20
30.420310
 40
0.499999
 41
0.499999
 42
0.000000
  0
SEQEND
  0
POLYLINE
  8
PG_SILKSCREEN_BOTTOM
 66
1
 70
0
 40
0.000000
 41
0.000000
 39
0.000000
  0
VERTEX
  8
PG_SILKSCREEN_BOTTOM
 10
116.942565
 20
19.168288
 40
0.499999
 41
0.499999
 42
0.000000
  0
VERTEX
  8
PG_SILKSCREEN_BOTTOM
 10
116.942565
 20
17.968290
 40
0.499999
 41
0.499999
 42
0.000000
  0
SEQEND
  0
POLYLINE
  8
BG_OUTLINE
 66
1
 70
0
 40
0.000000
 41
0.000000
 39
0.000000
  0
VERTEX
  8
BG_OUTLINE
 10
173.999652
 20
121.999756
 40
0.000000
 41
0.000000
 42
0.000000
  0
VERTEX
  8
BG_OUTLINE
 10
172.999654
 20
121.999756
 40
0.000000
 41
0.000000
 42
0.000000
  0
VERTEX
  8
BG_OUTLINE
 10
172.999654
 20
119.999760
 40
0.000000
 41
0.000000
 42
0.000000
  0
SEQEND
  0
POLYLINE
  8
BG_OUTLINE
 66
1
 70
0
 40
0.000000
 41
0.000000
 39
0.000000
  0
VERTEX
  8
BG_OUTLINE
 10
172.999654
 20
0.000000
 40
0.000000
 41
0.000000
 42
0.000000
  0
VERTEX
  8
BG_OUTLINE
 10
172.999654
 20
-1.999996
 40
0.000000
 41
0.000000
 42
0.000000
  0
VERTEX
  8
BG_OUTLINE
 10
175.999648
 20
-1.999996
 40
0.000000
 41
0.000000
 42
0.000000
  0
SEQEND
  0
POLYLINE
  8
BG_OUTLINE
 66
1
 70
0
 40
0.000000
 41
0.000000
 39
0.000000
  0
VERTEX
  8
BG_OUTLINE
 10
8.999982
 20
121.999756
 40
0.152400
 41
0.152400
 42
1.000000
  0
VERTEX
  8
BG_OUTLINE
 10
6.999986
 20
121.999756
 40
0.152400
 41
0.152400
 42
1.000000
  0
VERTEX
  8
BG_OUTLINE
 10
8.999982
 20
121.999756
 40
0.152400
 41
0.152400
 42
0.000000
  0
SEQEND
  0
POLYLINE
  8
BG_OUTLINE
 66
1
 70
0
 40
0.000000
 41
0.000000
 39
0.000000
  0
VERTEX
  8
BG_OUTLINE
 10
7.999984
 20
-2.999994
 40
0.152400
 41
0.152400
 42
1.000000
  0
VERTEX
  8
BG_OUTLINE
 10
5.999988
 20
-2.999994
 40
0.152400
 41
0.152400
 42
1.000000
  0
VERTEX
  8
BG_OUTLINE
 10
7.999984
 20
-2.999994
 40
0.152400
 41
0.152400
 42
0.000000
  0
SEQEND
  0
POLYLINE
  8
BG_OUTLINE
 66
1
 70
0
 40
0.000000
 41
0.000000
 39
0.000000
  0
VERTEX
  8
BG_OUTLINE
 10
167.999664
 20
-2.999994
 40
0.152400
 41
0.152400
 42
1.000000
  0
VERTEX
  8
BG_OUTLINE
 10
165.999668
 20
-2.999994
 40
0.152400
 41
0.152400
 42
1.000000
  0
VERTEX
  8
BG_OUTLINE
 10
167.999664
 20
-2.999994
 40
0.152400
 41
0.152400
 42
0.000000
  0
SEQEND
  0
POLYLINE
  8
BG_OUTLINE
 66
1
 70
0
 40
0.000000
 41
0.000000
 39
0.000000
  0
VERTEX
  8
BG_OUTLINE
 10
169.999660
 20
121.999756
 40
0.152400
 41
0.152400
 42
1.000000
  0
VERTEX
  8
BG_OUTLINE
 10
167.999664
 20
121.999756
 40
0.152400
 41
0.152400
 42
1.000000
  0
VERTEX
  8
BG_OUTLINE
 10
169.999660
 20
121.999756
 40
0.152400
 41
0.152400
 42
0.000000
  0
SEQEND
  0
POLYLINE
  8
BG_OUTLINE
 66
1
 70
0
 40
0.000000
 41
0.000000
 39
0.000000
  0
VERTEX
  8
BG_OUTLINE
 10
173.999652
 20
121.999756
 40
0.000000
 41
0.000000
 42
0.000000
  0
VERTEX
  8
BG_OUTLINE
 10
175.999648
 20
121.999756
 40
0.000000
 41
0.000000
 42
0.000000
  0
VERTEX
  8
BG_OUTLINE
 10
175.999648
 20
122.999754
 40
0.000000
 41
0.000000
 42
0.414214
  0
VERTEX
  8
BG_OUTLINE
 10
173.999652
 20
124.999750
 40
0.000000
 41
0.000000
 42
0.000000
  0
VERTEX
  8
BG_OUTLINE
 10
1.999996
 20
124.999750
 40
0.000000
 41
0.000000
 42
0.414214
  0
VERTEX
  8
BG_OUTLINE
 10
0.000000
 20
122.999754
 40
0.000000
 41
0.000000
 42
0.000000
  0
VERTEX
  8
BG_OUTLINE
 10
0.000000
 20
121.999756
 40
0.000000
 41
0.000000
 42
0.000000
  0
VERTEX
  8
BG_OUTLINE
 10
2.999994
 20
121.999756
 40
0.000000
 41
0.000000
 42
0.000000
  0
VERTEX
  8
BG_OUTLINE
 10
2.999994
 20
119.999760
 40
0.000000
 41
0.000000
 42
0.000000
  0
SEQEND
  0
POLYLINE
  8
BG_OUTLINE
 66
1
 70
0
 40
0.000000
 41
0.000000
 39
0.000000
  0
VERTEX
  8
BG_OUTLINE
 10
175.999648
 20
-1.999996
 40
0.000000
 41
0.000000
 42
0.000000
  0
VERTEX
  8
BG_OUTLINE
 10
175.999648
 20
-2.999994
 40
0.000000
 41
0.000000
 42
-0.414214
  0
VERTEX
  8
BG_OUTLINE
 10
173.999652
 20
-4.999990
 40
0.000000
 41
0.000000
 42
0.000000
  0
VERTEX
  8
BG_OUTLINE
 10
1.999996
 20
-4.999990
 40
0.000000
 41
0.000000
 42
-0.414214
  0
VERTEX
  8
BG_OUTLINE
 10
0.000000
 20
-2.999994
 40
0.000000
 41
0.000000
 42
0.000000
  0
VERTEX
  8
BG_OUTLINE
 10
0.000000
 20
-1.999996
 40
0.000000
 41
0.000000
 42
0.000000
  0
VERTEX
  8
BG_OUTLINE
 10
2.999994
 20
-1.999996
 40
0.000000
 41
0.000000
 42
0.000000
  0
VERTEX
  8
BG_OUTLINE
 10
2.999994
 20
0.000000
 40
0.000000
 41
0.000000
 42
0.000000
  0
SEQEND
  0
POLYLINE
  8
BG_OUTLINE
 66
1
 70
1
 40
0.000000
 41
0.000000
 39
0.000000
  0
VERTEX
  8
BG_OUTLINE
 10
0.000000
 20
2.999994
 40
0.000000
 41
0.000000
 42
0.000000
  0
VERTEX
  8
BG_OUTLINE
 10
0.000000
 20
116.999995
 40
0.000000
 41
0.000000
 42
-0.414214
  0
VERTEX
  8
BG_OUTLINE
 10
2.999994
 20
119.999989
 40
0.000000
 41
0.000000
 42
0.000000
  0
VERTEX
  8
BG_OUTLINE
 10
173.000010
 20
119.999989
 40
0.000000
 41
0.000000
 42
-0.414214
  0
VERTEX
  8
BG_OUTLINE
 10
176.000004
 20
116.999995
 40
0.000000
 41
0.000000
 42
0.000000
  0
VERTEX
  8
BG_OUTLINE
 10
176.000004
 20
2.999994
 40
0.000000
 41
0.000000
 42
-0.414214
  0
VERTEX
  8
BG_OUTLINE
 10
173.000010
 20
0.000000
 40
0.000000
 41
0.000000
 42
0.000000
  0
VERTEX
  8
BG_OUTLINE
 10
2.999994
 20
0.000000
 40
0.000000
 41
0.000000
 42
-0.414214
  0
SEQEND
  0
TEXT
  8
BG_SILKSCREEN_BOTTOM
 10
21.795207
 20
13.621512
 11
0.000000
 21
0.000000
 40
0.889000
 41
0.942857
 50
0.000000
  7
STANDARD
 71
2
 72
0
  1
EBF410021
 73
0
  0
TEXT
  8
BG_SILKSCREEN_BOTTOM
 10
21.348700
 20
12.128500
 11
0.000000
 21
0.000000
 40
0.889000
 41
0.942857
 50
0.000000
  7
STANDARD
 71
2
 72
0
  1
20230925
 73
0
  0
ENDSEC
  0
EOF
